G04 #@! TF.GenerationSoftware,KiCad,Pcbnew,5.1.9-73d0e3b20d~88~ubuntu18.04.1*
G04 #@! TF.CreationDate,2021-10-16T20:22:12+02:00*
G04 #@! TF.ProjectId,VFODial,56464f44-6961-46c2-9e6b-696361645f70,rev?*
G04 #@! TF.SameCoordinates,Original*
G04 #@! TF.FileFunction,Legend,Bot*
G04 #@! TF.FilePolarity,Positive*
%FSLAX46Y46*%
G04 Gerber Fmt 4.6, Leading zero omitted, Abs format (unit mm)*
G04 Created by KiCad (PCBNEW 5.1.9-73d0e3b20d~88~ubuntu18.04.1) date 2021-10-16 20:22:12*
%MOMM*%
%LPD*%
G01*
G04 APERTURE LIST*
%ADD10C,0.300000*%
G04 #@! TA.AperFunction,Profile*
%ADD11C,0.050000*%
G04 #@! TD*
%ADD12C,0.127000*%
%ADD13C,0.099060*%
%ADD14C,0.120000*%
%ADD15C,0.150000*%
%ADD16C,0.114300*%
%ADD17C,0.109220*%
G04 APERTURE END LIST*
D10*
X34197619Y-166904761D02*
X33530952Y-168904761D01*
X32864285Y-166904761D01*
X31816666Y-166904761D02*
X31626190Y-166904761D01*
X31435714Y-167000000D01*
X31340476Y-167095238D01*
X31245238Y-167285714D01*
X31150000Y-167666666D01*
X31150000Y-168142857D01*
X31245238Y-168523809D01*
X31340476Y-168714285D01*
X31435714Y-168809523D01*
X31626190Y-168904761D01*
X31816666Y-168904761D01*
X32007142Y-168809523D01*
X32102380Y-168714285D01*
X32197619Y-168523809D01*
X32292857Y-168142857D01*
X32292857Y-167666666D01*
X32197619Y-167285714D01*
X32102380Y-167095238D01*
X32007142Y-167000000D01*
X31816666Y-166904761D01*
X30292857Y-168714285D02*
X30197619Y-168809523D01*
X30292857Y-168904761D01*
X30388095Y-168809523D01*
X30292857Y-168714285D01*
X30292857Y-168904761D01*
X28292857Y-168904761D02*
X29435714Y-168904761D01*
X28864285Y-168904761D02*
X28864285Y-166904761D01*
X29054761Y-167190476D01*
X29245238Y-167380952D01*
X29435714Y-167476190D01*
X49012142Y-126357142D02*
X49678809Y-126357142D01*
X49678809Y-127404761D02*
X49678809Y-125404761D01*
X48726428Y-125404761D01*
X47107380Y-126071428D02*
X47107380Y-127404761D01*
X47583571Y-125309523D02*
X48059761Y-126738095D01*
X46821666Y-126738095D01*
X46059761Y-127404761D02*
X46059761Y-125404761D01*
X45107380Y-127404761D02*
X45107380Y-125404761D01*
X45107380Y-126357142D02*
X43964523Y-126357142D01*
X43964523Y-127404761D02*
X43964523Y-125404761D01*
X43202619Y-125404761D02*
X41869285Y-127404761D01*
X41869285Y-125404761D02*
X43202619Y-127404761D01*
X49964523Y-128704761D02*
X49297857Y-130704761D01*
X48631190Y-128704761D01*
X47297857Y-129657142D02*
X47964523Y-129657142D01*
X47964523Y-130704761D02*
X47964523Y-128704761D01*
X47012142Y-128704761D01*
X45869285Y-128704761D02*
X45488333Y-128704761D01*
X45297857Y-128800000D01*
X45107380Y-128990476D01*
X45012142Y-129371428D01*
X45012142Y-130038095D01*
X45107380Y-130419047D01*
X45297857Y-130609523D01*
X45488333Y-130704761D01*
X45869285Y-130704761D01*
X46059761Y-130609523D01*
X46250238Y-130419047D01*
X46345476Y-130038095D01*
X46345476Y-129371428D01*
X46250238Y-128990476D01*
X46059761Y-128800000D01*
X45869285Y-128704761D01*
X42631190Y-130704761D02*
X42631190Y-128704761D01*
X42155000Y-128704761D01*
X41869285Y-128800000D01*
X41678809Y-128990476D01*
X41583571Y-129180952D01*
X41488333Y-129561904D01*
X41488333Y-129847619D01*
X41583571Y-130228571D01*
X41678809Y-130419047D01*
X41869285Y-130609523D01*
X42155000Y-130704761D01*
X42631190Y-130704761D01*
X40631190Y-130704761D02*
X40631190Y-129371428D01*
X40631190Y-128704761D02*
X40726428Y-128800000D01*
X40631190Y-128895238D01*
X40535952Y-128800000D01*
X40631190Y-128704761D01*
X40631190Y-128895238D01*
X38821666Y-130704761D02*
X38821666Y-129657142D01*
X38916904Y-129466666D01*
X39107380Y-129371428D01*
X39488333Y-129371428D01*
X39678809Y-129466666D01*
X38821666Y-130609523D02*
X39012142Y-130704761D01*
X39488333Y-130704761D01*
X39678809Y-130609523D01*
X39774047Y-130419047D01*
X39774047Y-130228571D01*
X39678809Y-130038095D01*
X39488333Y-129942857D01*
X39012142Y-129942857D01*
X38821666Y-129847619D01*
X37583571Y-130704761D02*
X37774047Y-130609523D01*
X37869285Y-130419047D01*
X37869285Y-128704761D01*
X49678809Y-134004761D02*
X49678809Y-132004761D01*
X49678809Y-132766666D02*
X49488333Y-132671428D01*
X49107380Y-132671428D01*
X48916904Y-132766666D01*
X48821666Y-132861904D01*
X48726428Y-133052380D01*
X48726428Y-133623809D01*
X48821666Y-133814285D01*
X48916904Y-133909523D01*
X49107380Y-134004761D01*
X49488333Y-134004761D01*
X49678809Y-133909523D01*
X47583571Y-134004761D02*
X47774047Y-133909523D01*
X47869285Y-133719047D01*
X47869285Y-132004761D01*
X46535952Y-134004761D02*
X46726428Y-133909523D01*
X46821666Y-133814285D01*
X46916904Y-133623809D01*
X46916904Y-133052380D01*
X46821666Y-132861904D01*
X46726428Y-132766666D01*
X46535952Y-132671428D01*
X46250238Y-132671428D01*
X46059761Y-132766666D01*
X45964523Y-132861904D01*
X45869285Y-133052380D01*
X45869285Y-133623809D01*
X45964523Y-133814285D01*
X46059761Y-133909523D01*
X46250238Y-134004761D01*
X46535952Y-134004761D01*
X44155000Y-132671428D02*
X44155000Y-134290476D01*
X44250238Y-134480952D01*
X44345476Y-134576190D01*
X44535952Y-134671428D01*
X44821666Y-134671428D01*
X45012142Y-134576190D01*
X44155000Y-133909523D02*
X44345476Y-134004761D01*
X44726428Y-134004761D01*
X44916904Y-133909523D01*
X45012142Y-133814285D01*
X45107380Y-133623809D01*
X45107380Y-133052380D01*
X45012142Y-132861904D01*
X44916904Y-132766666D01*
X44726428Y-132671428D01*
X44345476Y-132671428D01*
X44155000Y-132766666D01*
X43202619Y-133814285D02*
X43107380Y-133909523D01*
X43202619Y-134004761D01*
X43297857Y-133909523D01*
X43202619Y-133814285D01*
X43202619Y-134004761D01*
X42250238Y-132671428D02*
X42250238Y-134671428D01*
X42250238Y-132766666D02*
X42059761Y-132671428D01*
X41678809Y-132671428D01*
X41488333Y-132766666D01*
X41393095Y-132861904D01*
X41297857Y-133052380D01*
X41297857Y-133623809D01*
X41393095Y-133814285D01*
X41488333Y-133909523D01*
X41678809Y-134004761D01*
X42059761Y-134004761D01*
X42250238Y-133909523D01*
X39583571Y-134004761D02*
X39583571Y-132957142D01*
X39678809Y-132766666D01*
X39869285Y-132671428D01*
X40250238Y-132671428D01*
X40440714Y-132766666D01*
X39583571Y-133909523D02*
X39774047Y-134004761D01*
X40250238Y-134004761D01*
X40440714Y-133909523D01*
X40535952Y-133719047D01*
X40535952Y-133528571D01*
X40440714Y-133338095D01*
X40250238Y-133242857D01*
X39774047Y-133242857D01*
X39583571Y-133147619D01*
X38631190Y-132671428D02*
X38631190Y-134671428D01*
X38631190Y-132766666D02*
X38440714Y-132671428D01*
X38059761Y-132671428D01*
X37869285Y-132766666D01*
X37774047Y-132861904D01*
X37678809Y-133052380D01*
X37678809Y-133623809D01*
X37774047Y-133814285D01*
X37869285Y-133909523D01*
X38059761Y-134004761D01*
X38440714Y-134004761D01*
X38631190Y-133909523D01*
X36821666Y-134004761D02*
X36821666Y-132671428D01*
X36821666Y-133052380D02*
X36726428Y-132861904D01*
X36631190Y-132766666D01*
X36440714Y-132671428D01*
X36250238Y-132671428D01*
X35583571Y-133814285D02*
X35488333Y-133909523D01*
X35583571Y-134004761D01*
X35678809Y-133909523D01*
X35583571Y-133814285D01*
X35583571Y-134004761D01*
X34726428Y-133909523D02*
X34535952Y-134004761D01*
X34155000Y-134004761D01*
X33964523Y-133909523D01*
X33869285Y-133719047D01*
X33869285Y-133623809D01*
X33964523Y-133433333D01*
X34155000Y-133338095D01*
X34440714Y-133338095D01*
X34631190Y-133242857D01*
X34726428Y-133052380D01*
X34726428Y-132957142D01*
X34631190Y-132766666D01*
X34440714Y-132671428D01*
X34155000Y-132671428D01*
X33964523Y-132766666D01*
X33297857Y-132671428D02*
X32535952Y-132671428D01*
X33012142Y-132004761D02*
X33012142Y-133719047D01*
X32916904Y-133909523D01*
X32726428Y-134004761D01*
X32535952Y-134004761D01*
D11*
X20100000Y-187400000D02*
X20100000Y-187300000D01*
X138100000Y-187400000D02*
X20100000Y-187400000D01*
X138100000Y-113400000D02*
X138100000Y-187400000D01*
X20100000Y-113400000D02*
X138100000Y-113400000D01*
X20100000Y-187300000D02*
X20100000Y-113400000D01*
D12*
G04 #@! TO.C,R129*
X110915000Y-168657000D02*
X110915000Y-170943000D01*
X110915000Y-170943000D02*
X112185000Y-170943000D01*
X112185000Y-170943000D02*
X112185000Y-168657000D01*
X112185000Y-168657000D02*
X110915000Y-168657000D01*
G04 #@! TO.C,R126*
X120743000Y-164465000D02*
X118457000Y-164465000D01*
X118457000Y-164465000D02*
X118457000Y-165735000D01*
X118457000Y-165735000D02*
X120743000Y-165735000D01*
X120743000Y-165735000D02*
X120743000Y-164465000D01*
G04 #@! TO.C,R125*
X120743000Y-146965000D02*
X118457000Y-146965000D01*
X118457000Y-146965000D02*
X118457000Y-148235000D01*
X118457000Y-148235000D02*
X120743000Y-148235000D01*
X120743000Y-148235000D02*
X120743000Y-146965000D01*
G04 #@! TO.C,R124*
X120743000Y-129465000D02*
X118457000Y-129465000D01*
X118457000Y-129465000D02*
X118457000Y-130735000D01*
X118457000Y-130735000D02*
X120743000Y-130735000D01*
X120743000Y-130735000D02*
X120743000Y-129465000D01*
G04 #@! TO.C,R123*
X103243000Y-164465000D02*
X100957000Y-164465000D01*
X100957000Y-164465000D02*
X100957000Y-165735000D01*
X100957000Y-165735000D02*
X103243000Y-165735000D01*
X103243000Y-165735000D02*
X103243000Y-164465000D01*
G04 #@! TO.C,R122*
X103243000Y-146965000D02*
X100957000Y-146965000D01*
X100957000Y-146965000D02*
X100957000Y-148235000D01*
X100957000Y-148235000D02*
X103243000Y-148235000D01*
X103243000Y-148235000D02*
X103243000Y-146965000D01*
G04 #@! TO.C,R121*
X103243000Y-129465000D02*
X100957000Y-129465000D01*
X100957000Y-129465000D02*
X100957000Y-130735000D01*
X100957000Y-130735000D02*
X103243000Y-130735000D01*
X103243000Y-130735000D02*
X103243000Y-129465000D01*
G04 #@! TO.C,R120*
X76265000Y-168857000D02*
X76265000Y-171143000D01*
X76265000Y-171143000D02*
X77535000Y-171143000D01*
X77535000Y-171143000D02*
X77535000Y-168857000D01*
X77535000Y-168857000D02*
X76265000Y-168857000D01*
G04 #@! TO.C,R119*
X85743000Y-164465000D02*
X83457000Y-164465000D01*
X83457000Y-164465000D02*
X83457000Y-165735000D01*
X83457000Y-165735000D02*
X85743000Y-165735000D01*
X85743000Y-165735000D02*
X85743000Y-164465000D01*
G04 #@! TO.C,R118*
X85743000Y-146965000D02*
X83457000Y-146965000D01*
X83457000Y-146965000D02*
X83457000Y-148235000D01*
X83457000Y-148235000D02*
X85743000Y-148235000D01*
X85743000Y-148235000D02*
X85743000Y-146965000D01*
G04 #@! TO.C,R117*
X85743000Y-129465000D02*
X83457000Y-129465000D01*
X83457000Y-129465000D02*
X83457000Y-130735000D01*
X83457000Y-130735000D02*
X85743000Y-130735000D01*
X85743000Y-130735000D02*
X85743000Y-129465000D01*
G04 #@! TO.C,R116*
X111943000Y-183465000D02*
X109657000Y-183465000D01*
X109657000Y-183465000D02*
X109657000Y-184735000D01*
X109657000Y-184735000D02*
X111943000Y-184735000D01*
X111943000Y-184735000D02*
X111943000Y-183465000D01*
G04 #@! TO.C,R115*
X94443000Y-183465000D02*
X92157000Y-183465000D01*
X92157000Y-183465000D02*
X92157000Y-184735000D01*
X92157000Y-184735000D02*
X94443000Y-184735000D01*
X94443000Y-184735000D02*
X94443000Y-183465000D01*
G04 #@! TO.C,R114*
X77043000Y-183465000D02*
X74757000Y-183465000D01*
X74757000Y-183465000D02*
X74757000Y-184735000D01*
X74757000Y-184735000D02*
X77043000Y-184735000D01*
X77043000Y-184735000D02*
X77043000Y-183465000D01*
G04 #@! TO.C,R113*
X68243000Y-164465000D02*
X65957000Y-164465000D01*
X65957000Y-164465000D02*
X65957000Y-165735000D01*
X65957000Y-165735000D02*
X68243000Y-165735000D01*
X68243000Y-165735000D02*
X68243000Y-164465000D01*
G04 #@! TO.C,R112*
X68243000Y-146965000D02*
X65957000Y-146965000D01*
X65957000Y-146965000D02*
X65957000Y-148235000D01*
X65957000Y-148235000D02*
X68243000Y-148235000D01*
X68243000Y-148235000D02*
X68243000Y-146965000D01*
G04 #@! TO.C,R111*
X68243000Y-129465000D02*
X65957000Y-129465000D01*
X65957000Y-129465000D02*
X65957000Y-130735000D01*
X65957000Y-130735000D02*
X68243000Y-130735000D01*
X68243000Y-130735000D02*
X68243000Y-129465000D01*
G04 #@! TO.C,R110*
X110635000Y-177143000D02*
X110635000Y-174857000D01*
X110635000Y-174857000D02*
X109365000Y-174857000D01*
X109365000Y-174857000D02*
X109365000Y-177143000D01*
X109365000Y-177143000D02*
X110635000Y-177143000D01*
G04 #@! TO.C,R109*
X93143000Y-174365000D02*
X90857000Y-174365000D01*
X90857000Y-174365000D02*
X90857000Y-175635000D01*
X90857000Y-175635000D02*
X93143000Y-175635000D01*
X93143000Y-175635000D02*
X93143000Y-174365000D01*
G04 #@! TO.C,R108*
X76143000Y-174365000D02*
X73857000Y-174365000D01*
X73857000Y-174365000D02*
X73857000Y-175635000D01*
X73857000Y-175635000D02*
X76143000Y-175635000D01*
X76143000Y-175635000D02*
X76143000Y-174365000D01*
G04 #@! TO.C,R107*
X59535000Y-169543000D02*
X59535000Y-167257000D01*
X59535000Y-167257000D02*
X58265000Y-167257000D01*
X58265000Y-167257000D02*
X58265000Y-169543000D01*
X58265000Y-169543000D02*
X59535000Y-169543000D01*
G04 #@! TO.C,R106*
X62057000Y-171735000D02*
X64343000Y-171735000D01*
X64343000Y-171735000D02*
X64343000Y-170465000D01*
X64343000Y-170465000D02*
X62057000Y-170465000D01*
X62057000Y-170465000D02*
X62057000Y-171735000D01*
G04 #@! TO.C,R105*
X62057000Y-173235000D02*
X64343000Y-173235000D01*
X64343000Y-173235000D02*
X64343000Y-171965000D01*
X64343000Y-171965000D02*
X62057000Y-171965000D01*
X62057000Y-171965000D02*
X62057000Y-173235000D01*
G04 #@! TO.C,C113*
X113143000Y-173365000D02*
X110857000Y-173365000D01*
X110857000Y-173365000D02*
X110857000Y-174635000D01*
X110857000Y-174635000D02*
X113143000Y-174635000D01*
X113143000Y-174635000D02*
X113143000Y-173365000D01*
G04 #@! TO.C,C112*
X91635000Y-178143000D02*
X91635000Y-175857000D01*
X91635000Y-175857000D02*
X90365000Y-175857000D01*
X90365000Y-175857000D02*
X90365000Y-178143000D01*
X90365000Y-178143000D02*
X91635000Y-178143000D01*
G04 #@! TO.C,C111*
X72857000Y-177635000D02*
X75143000Y-177635000D01*
X75143000Y-177635000D02*
X75143000Y-176365000D01*
X75143000Y-176365000D02*
X72857000Y-176365000D01*
X72857000Y-176365000D02*
X72857000Y-177635000D01*
G04 #@! TO.C,C110*
X53715000Y-149707000D02*
X53715000Y-151993000D01*
X53715000Y-151993000D02*
X54985000Y-151993000D01*
X54985000Y-151993000D02*
X54985000Y-149707000D01*
X54985000Y-149707000D02*
X53715000Y-149707000D01*
G04 #@! TO.C,C109*
X48707000Y-156935000D02*
X50993000Y-156935000D01*
X50993000Y-156935000D02*
X50993000Y-155665000D01*
X50993000Y-155665000D02*
X48707000Y-155665000D01*
X48707000Y-155665000D02*
X48707000Y-156935000D01*
G04 #@! TO.C,C108*
X48557000Y-144185000D02*
X50843000Y-144185000D01*
X50843000Y-144185000D02*
X50843000Y-142915000D01*
X50843000Y-142915000D02*
X48557000Y-142915000D01*
X48557000Y-142915000D02*
X48557000Y-144185000D01*
G04 #@! TO.C,C107*
X41515000Y-148207000D02*
X41515000Y-150493000D01*
X41515000Y-150493000D02*
X42785000Y-150493000D01*
X42785000Y-150493000D02*
X42785000Y-148207000D01*
X42785000Y-148207000D02*
X41515000Y-148207000D01*
G04 #@! TO.C,C106*
X45165000Y-150695000D02*
X45165000Y-152981000D01*
X45165000Y-152981000D02*
X46435000Y-152981000D01*
X46435000Y-152981000D02*
X46435000Y-150695000D01*
X46435000Y-150695000D02*
X45165000Y-150695000D01*
D13*
G04 #@! TO.C,C105*
X48326000Y-140888000D02*
G75*
G03*
X48326000Y-140888000I-127000J0D01*
G01*
X49342000Y-140888000D02*
X48326000Y-140888000D01*
X48326000Y-140888000D02*
X48326000Y-142412000D01*
X48326000Y-142412000D02*
X49342000Y-142412000D01*
X50358000Y-142412000D02*
X51374000Y-142412000D01*
X51374000Y-142412000D02*
X51374000Y-140888000D01*
X51374000Y-140888000D02*
X50358000Y-140888000D01*
G04 #@! TO.C,C104*
X56989000Y-149399000D02*
G75*
G03*
X56989000Y-149399000I-127000J0D01*
G01*
X56862000Y-150542000D02*
X56862000Y-149526000D01*
X56862000Y-149526000D02*
X55338000Y-149526000D01*
X55338000Y-149526000D02*
X55338000Y-150542000D01*
X55338000Y-151558000D02*
X55338000Y-152574000D01*
X55338000Y-152574000D02*
X56862000Y-152574000D01*
X56862000Y-152574000D02*
X56862000Y-151558000D01*
D14*
G04 #@! TO.C,Q107*
X124720000Y-169040000D02*
X124720000Y-170500000D01*
X127880000Y-169040000D02*
X127880000Y-171200000D01*
X127880000Y-169040000D02*
X126950000Y-169040000D01*
X124720000Y-169040000D02*
X125650000Y-169040000D01*
G04 #@! TO.C,Q106*
X107220000Y-169040000D02*
X107220000Y-170500000D01*
X110380000Y-169040000D02*
X110380000Y-171200000D01*
X110380000Y-169040000D02*
X109450000Y-169040000D01*
X107220000Y-169040000D02*
X108150000Y-169040000D01*
G04 #@! TO.C,Q105*
X85640000Y-185680000D02*
X87100000Y-185680000D01*
X85640000Y-182520000D02*
X87800000Y-182520000D01*
X85640000Y-182520000D02*
X85640000Y-183450000D01*
X85640000Y-185680000D02*
X85640000Y-184750000D01*
G04 #@! TO.C,Q104*
X89720000Y-169040000D02*
X89720000Y-170500000D01*
X92880000Y-169040000D02*
X92880000Y-171200000D01*
X92880000Y-169040000D02*
X91950000Y-169040000D01*
X89720000Y-169040000D02*
X90650000Y-169040000D01*
G04 #@! TO.C,Q103*
X103140000Y-185680000D02*
X104600000Y-185680000D01*
X103140000Y-182520000D02*
X105300000Y-182520000D01*
X103140000Y-182520000D02*
X103140000Y-183450000D01*
X103140000Y-185680000D02*
X103140000Y-184750000D01*
G04 #@! TO.C,Q102*
X121240000Y-185680000D02*
X122700000Y-185680000D01*
X121240000Y-182520000D02*
X123400000Y-182520000D01*
X121240000Y-182520000D02*
X121240000Y-183450000D01*
X121240000Y-185680000D02*
X121240000Y-184750000D01*
G04 #@! TO.C,Q101*
X72220000Y-169040000D02*
X72220000Y-170500000D01*
X75380000Y-169040000D02*
X75380000Y-171200000D01*
X75380000Y-169040000D02*
X74450000Y-169040000D01*
X72220000Y-169040000D02*
X73150000Y-169040000D01*
D15*
G04 #@! TO.C,D112*
X133200000Y-155000000D02*
X132000000Y-154200000D01*
X132000000Y-154200000D02*
X132000000Y-155800000D01*
X132000000Y-155800000D02*
X133200000Y-155000000D01*
X133500000Y-154200000D02*
X133500000Y-155800000D01*
X133200000Y-154200000D02*
X133200000Y-155800000D01*
X133900000Y-154200000D02*
X131100000Y-154200000D01*
X131100000Y-154200000D02*
X131100000Y-155800000D01*
X131100000Y-155800000D02*
X133900000Y-155800000D01*
X133900000Y-155800000D02*
X133900000Y-154200000D01*
G04 #@! TO.C,D111*
X133200000Y-137500000D02*
X132000000Y-136700000D01*
X132000000Y-136700000D02*
X132000000Y-138300000D01*
X132000000Y-138300000D02*
X133200000Y-137500000D01*
X133500000Y-136700000D02*
X133500000Y-138300000D01*
X133200000Y-136700000D02*
X133200000Y-138300000D01*
X133900000Y-136700000D02*
X131100000Y-136700000D01*
X131100000Y-136700000D02*
X131100000Y-138300000D01*
X131100000Y-138300000D02*
X133900000Y-138300000D01*
X133900000Y-138300000D02*
X133900000Y-136700000D01*
G04 #@! TO.C,D110*
X133200000Y-120000000D02*
X132000000Y-119200000D01*
X132000000Y-119200000D02*
X132000000Y-120800000D01*
X132000000Y-120800000D02*
X133200000Y-120000000D01*
X133500000Y-119200000D02*
X133500000Y-120800000D01*
X133200000Y-119200000D02*
X133200000Y-120800000D01*
X133900000Y-119200000D02*
X131100000Y-119200000D01*
X131100000Y-119200000D02*
X131100000Y-120800000D01*
X131100000Y-120800000D02*
X133900000Y-120800000D01*
X133900000Y-120800000D02*
X133900000Y-119200000D01*
G04 #@! TO.C,D109*
X115700000Y-155000000D02*
X114500000Y-154200000D01*
X114500000Y-154200000D02*
X114500000Y-155800000D01*
X114500000Y-155800000D02*
X115700000Y-155000000D01*
X116000000Y-154200000D02*
X116000000Y-155800000D01*
X115700000Y-154200000D02*
X115700000Y-155800000D01*
X116400000Y-154200000D02*
X113600000Y-154200000D01*
X113600000Y-154200000D02*
X113600000Y-155800000D01*
X113600000Y-155800000D02*
X116400000Y-155800000D01*
X116400000Y-155800000D02*
X116400000Y-154200000D01*
G04 #@! TO.C,D108*
X115700000Y-137500000D02*
X114500000Y-136700000D01*
X114500000Y-136700000D02*
X114500000Y-138300000D01*
X114500000Y-138300000D02*
X115700000Y-137500000D01*
X116000000Y-136700000D02*
X116000000Y-138300000D01*
X115700000Y-136700000D02*
X115700000Y-138300000D01*
X116400000Y-136700000D02*
X113600000Y-136700000D01*
X113600000Y-136700000D02*
X113600000Y-138300000D01*
X113600000Y-138300000D02*
X116400000Y-138300000D01*
X116400000Y-138300000D02*
X116400000Y-136700000D01*
G04 #@! TO.C,D107*
X115700000Y-120000000D02*
X114500000Y-119200000D01*
X114500000Y-119200000D02*
X114500000Y-120800000D01*
X114500000Y-120800000D02*
X115700000Y-120000000D01*
X116000000Y-119200000D02*
X116000000Y-120800000D01*
X115700000Y-119200000D02*
X115700000Y-120800000D01*
X116400000Y-119200000D02*
X113600000Y-119200000D01*
X113600000Y-119200000D02*
X113600000Y-120800000D01*
X113600000Y-120800000D02*
X116400000Y-120800000D01*
X116400000Y-120800000D02*
X116400000Y-119200000D01*
G04 #@! TO.C,D106*
X98200000Y-155000000D02*
X97000000Y-154200000D01*
X97000000Y-154200000D02*
X97000000Y-155800000D01*
X97000000Y-155800000D02*
X98200000Y-155000000D01*
X98500000Y-154200000D02*
X98500000Y-155800000D01*
X98200000Y-154200000D02*
X98200000Y-155800000D01*
X98900000Y-154200000D02*
X96100000Y-154200000D01*
X96100000Y-154200000D02*
X96100000Y-155800000D01*
X96100000Y-155800000D02*
X98900000Y-155800000D01*
X98900000Y-155800000D02*
X98900000Y-154200000D01*
G04 #@! TO.C,D105*
X98200000Y-137500000D02*
X97000000Y-136700000D01*
X97000000Y-136700000D02*
X97000000Y-138300000D01*
X97000000Y-138300000D02*
X98200000Y-137500000D01*
X98500000Y-136700000D02*
X98500000Y-138300000D01*
X98200000Y-136700000D02*
X98200000Y-138300000D01*
X98900000Y-136700000D02*
X96100000Y-136700000D01*
X96100000Y-136700000D02*
X96100000Y-138300000D01*
X96100000Y-138300000D02*
X98900000Y-138300000D01*
X98900000Y-138300000D02*
X98900000Y-136700000D01*
G04 #@! TO.C,D104*
X98200000Y-120000000D02*
X97000000Y-119200000D01*
X97000000Y-119200000D02*
X97000000Y-120800000D01*
X97000000Y-120800000D02*
X98200000Y-120000000D01*
X98500000Y-119200000D02*
X98500000Y-120800000D01*
X98200000Y-119200000D02*
X98200000Y-120800000D01*
X98900000Y-119200000D02*
X96100000Y-119200000D01*
X96100000Y-119200000D02*
X96100000Y-120800000D01*
X96100000Y-120800000D02*
X98900000Y-120800000D01*
X98900000Y-120800000D02*
X98900000Y-119200000D01*
G04 #@! TO.C,D103*
X80700000Y-155000000D02*
X79500000Y-154200000D01*
X79500000Y-154200000D02*
X79500000Y-155800000D01*
X79500000Y-155800000D02*
X80700000Y-155000000D01*
X81000000Y-154200000D02*
X81000000Y-155800000D01*
X80700000Y-154200000D02*
X80700000Y-155800000D01*
X81400000Y-154200000D02*
X78600000Y-154200000D01*
X78600000Y-154200000D02*
X78600000Y-155800000D01*
X78600000Y-155800000D02*
X81400000Y-155800000D01*
X81400000Y-155800000D02*
X81400000Y-154200000D01*
G04 #@! TO.C,D102*
X80700000Y-137500000D02*
X79500000Y-136700000D01*
X79500000Y-136700000D02*
X79500000Y-138300000D01*
X79500000Y-138300000D02*
X80700000Y-137500000D01*
X81000000Y-136700000D02*
X81000000Y-138300000D01*
X80700000Y-136700000D02*
X80700000Y-138300000D01*
X81400000Y-136700000D02*
X78600000Y-136700000D01*
X78600000Y-136700000D02*
X78600000Y-138300000D01*
X78600000Y-138300000D02*
X81400000Y-138300000D01*
X81400000Y-138300000D02*
X81400000Y-136700000D01*
G04 #@! TO.C,D101*
X80700000Y-120000000D02*
X79500000Y-119200000D01*
X79500000Y-119200000D02*
X79500000Y-120800000D01*
X79500000Y-120800000D02*
X80700000Y-120000000D01*
X81000000Y-119200000D02*
X81000000Y-120800000D01*
X80700000Y-119200000D02*
X80700000Y-120800000D01*
X81400000Y-119200000D02*
X78600000Y-119200000D01*
X78600000Y-119200000D02*
X78600000Y-120800000D01*
X78600000Y-120800000D02*
X81400000Y-120800000D01*
X81400000Y-120800000D02*
X81400000Y-119200000D01*
G04 #@! TD*
G04 #@! TO.C,R129*
D16*
X113279809Y-169288371D02*
X113037904Y-169135971D01*
X113279809Y-169027114D02*
X112771809Y-169027114D01*
X112771809Y-169201285D01*
X112796000Y-169244828D01*
X112820190Y-169266600D01*
X112868571Y-169288371D01*
X112941142Y-169288371D01*
X112989523Y-169266600D01*
X113013714Y-169244828D01*
X113037904Y-169201285D01*
X113037904Y-169027114D01*
X113279809Y-169723800D02*
X113279809Y-169462542D01*
X113279809Y-169593171D02*
X112771809Y-169593171D01*
X112844380Y-169549628D01*
X112892761Y-169506085D01*
X112916952Y-169462542D01*
X112820190Y-169897971D02*
X112796000Y-169919742D01*
X112771809Y-169963285D01*
X112771809Y-170072142D01*
X112796000Y-170115685D01*
X112820190Y-170137457D01*
X112868571Y-170159228D01*
X112916952Y-170159228D01*
X112989523Y-170137457D01*
X113279809Y-169876200D01*
X113279809Y-170159228D01*
X113279809Y-170376942D02*
X113279809Y-170464028D01*
X113255619Y-170507571D01*
X113231428Y-170529342D01*
X113158857Y-170572885D01*
X113062095Y-170594657D01*
X112868571Y-170594657D01*
X112820190Y-170572885D01*
X112796000Y-170551114D01*
X112771809Y-170507571D01*
X112771809Y-170420485D01*
X112796000Y-170376942D01*
X112820190Y-170355171D01*
X112868571Y-170333400D01*
X112989523Y-170333400D01*
X113037904Y-170355171D01*
X113062095Y-170376942D01*
X113086285Y-170420485D01*
X113086285Y-170507571D01*
X113062095Y-170551114D01*
X113037904Y-170572885D01*
X112989523Y-170594657D01*
G04 #@! TO.C,R126*
X120111628Y-164059809D02*
X120264028Y-163817904D01*
X120372885Y-164059809D02*
X120372885Y-163551809D01*
X120198714Y-163551809D01*
X120155171Y-163576000D01*
X120133400Y-163600190D01*
X120111628Y-163648571D01*
X120111628Y-163721142D01*
X120133400Y-163769523D01*
X120155171Y-163793714D01*
X120198714Y-163817904D01*
X120372885Y-163817904D01*
X119676200Y-164059809D02*
X119937457Y-164059809D01*
X119806828Y-164059809D02*
X119806828Y-163551809D01*
X119850371Y-163624380D01*
X119893914Y-163672761D01*
X119937457Y-163696952D01*
X119502028Y-163600190D02*
X119480257Y-163576000D01*
X119436714Y-163551809D01*
X119327857Y-163551809D01*
X119284314Y-163576000D01*
X119262542Y-163600190D01*
X119240771Y-163648571D01*
X119240771Y-163696952D01*
X119262542Y-163769523D01*
X119523800Y-164059809D01*
X119240771Y-164059809D01*
X118848885Y-163551809D02*
X118935971Y-163551809D01*
X118979514Y-163576000D01*
X119001285Y-163600190D01*
X119044828Y-163672761D01*
X119066600Y-163769523D01*
X119066600Y-163963047D01*
X119044828Y-164011428D01*
X119023057Y-164035619D01*
X118979514Y-164059809D01*
X118892428Y-164059809D01*
X118848885Y-164035619D01*
X118827114Y-164011428D01*
X118805342Y-163963047D01*
X118805342Y-163842095D01*
X118827114Y-163793714D01*
X118848885Y-163769523D01*
X118892428Y-163745333D01*
X118979514Y-163745333D01*
X119023057Y-163769523D01*
X119044828Y-163793714D01*
X119066600Y-163842095D01*
G04 #@! TO.C,R125*
X120111628Y-146559809D02*
X120264028Y-146317904D01*
X120372885Y-146559809D02*
X120372885Y-146051809D01*
X120198714Y-146051809D01*
X120155171Y-146076000D01*
X120133400Y-146100190D01*
X120111628Y-146148571D01*
X120111628Y-146221142D01*
X120133400Y-146269523D01*
X120155171Y-146293714D01*
X120198714Y-146317904D01*
X120372885Y-146317904D01*
X119676200Y-146559809D02*
X119937457Y-146559809D01*
X119806828Y-146559809D02*
X119806828Y-146051809D01*
X119850371Y-146124380D01*
X119893914Y-146172761D01*
X119937457Y-146196952D01*
X119502028Y-146100190D02*
X119480257Y-146076000D01*
X119436714Y-146051809D01*
X119327857Y-146051809D01*
X119284314Y-146076000D01*
X119262542Y-146100190D01*
X119240771Y-146148571D01*
X119240771Y-146196952D01*
X119262542Y-146269523D01*
X119523800Y-146559809D01*
X119240771Y-146559809D01*
X118827114Y-146051809D02*
X119044828Y-146051809D01*
X119066600Y-146293714D01*
X119044828Y-146269523D01*
X119001285Y-146245333D01*
X118892428Y-146245333D01*
X118848885Y-146269523D01*
X118827114Y-146293714D01*
X118805342Y-146342095D01*
X118805342Y-146463047D01*
X118827114Y-146511428D01*
X118848885Y-146535619D01*
X118892428Y-146559809D01*
X119001285Y-146559809D01*
X119044828Y-146535619D01*
X119066600Y-146511428D01*
G04 #@! TO.C,R124*
X120111628Y-129059809D02*
X120264028Y-128817904D01*
X120372885Y-129059809D02*
X120372885Y-128551809D01*
X120198714Y-128551809D01*
X120155171Y-128576000D01*
X120133400Y-128600190D01*
X120111628Y-128648571D01*
X120111628Y-128721142D01*
X120133400Y-128769523D01*
X120155171Y-128793714D01*
X120198714Y-128817904D01*
X120372885Y-128817904D01*
X119676200Y-129059809D02*
X119937457Y-129059809D01*
X119806828Y-129059809D02*
X119806828Y-128551809D01*
X119850371Y-128624380D01*
X119893914Y-128672761D01*
X119937457Y-128696952D01*
X119502028Y-128600190D02*
X119480257Y-128576000D01*
X119436714Y-128551809D01*
X119327857Y-128551809D01*
X119284314Y-128576000D01*
X119262542Y-128600190D01*
X119240771Y-128648571D01*
X119240771Y-128696952D01*
X119262542Y-128769523D01*
X119523800Y-129059809D01*
X119240771Y-129059809D01*
X118848885Y-128721142D02*
X118848885Y-129059809D01*
X118957742Y-128527619D02*
X119066600Y-128890476D01*
X118783571Y-128890476D01*
G04 #@! TO.C,R123*
X102611628Y-164059809D02*
X102764028Y-163817904D01*
X102872885Y-164059809D02*
X102872885Y-163551809D01*
X102698714Y-163551809D01*
X102655171Y-163576000D01*
X102633400Y-163600190D01*
X102611628Y-163648571D01*
X102611628Y-163721142D01*
X102633400Y-163769523D01*
X102655171Y-163793714D01*
X102698714Y-163817904D01*
X102872885Y-163817904D01*
X102176200Y-164059809D02*
X102437457Y-164059809D01*
X102306828Y-164059809D02*
X102306828Y-163551809D01*
X102350371Y-163624380D01*
X102393914Y-163672761D01*
X102437457Y-163696952D01*
X102002028Y-163600190D02*
X101980257Y-163576000D01*
X101936714Y-163551809D01*
X101827857Y-163551809D01*
X101784314Y-163576000D01*
X101762542Y-163600190D01*
X101740771Y-163648571D01*
X101740771Y-163696952D01*
X101762542Y-163769523D01*
X102023800Y-164059809D01*
X101740771Y-164059809D01*
X101588371Y-163551809D02*
X101305342Y-163551809D01*
X101457742Y-163745333D01*
X101392428Y-163745333D01*
X101348885Y-163769523D01*
X101327114Y-163793714D01*
X101305342Y-163842095D01*
X101305342Y-163963047D01*
X101327114Y-164011428D01*
X101348885Y-164035619D01*
X101392428Y-164059809D01*
X101523057Y-164059809D01*
X101566600Y-164035619D01*
X101588371Y-164011428D01*
G04 #@! TO.C,R122*
X102611628Y-146559809D02*
X102764028Y-146317904D01*
X102872885Y-146559809D02*
X102872885Y-146051809D01*
X102698714Y-146051809D01*
X102655171Y-146076000D01*
X102633400Y-146100190D01*
X102611628Y-146148571D01*
X102611628Y-146221142D01*
X102633400Y-146269523D01*
X102655171Y-146293714D01*
X102698714Y-146317904D01*
X102872885Y-146317904D01*
X102176200Y-146559809D02*
X102437457Y-146559809D01*
X102306828Y-146559809D02*
X102306828Y-146051809D01*
X102350371Y-146124380D01*
X102393914Y-146172761D01*
X102437457Y-146196952D01*
X102002028Y-146100190D02*
X101980257Y-146076000D01*
X101936714Y-146051809D01*
X101827857Y-146051809D01*
X101784314Y-146076000D01*
X101762542Y-146100190D01*
X101740771Y-146148571D01*
X101740771Y-146196952D01*
X101762542Y-146269523D01*
X102023800Y-146559809D01*
X101740771Y-146559809D01*
X101566600Y-146100190D02*
X101544828Y-146076000D01*
X101501285Y-146051809D01*
X101392428Y-146051809D01*
X101348885Y-146076000D01*
X101327114Y-146100190D01*
X101305342Y-146148571D01*
X101305342Y-146196952D01*
X101327114Y-146269523D01*
X101588371Y-146559809D01*
X101305342Y-146559809D01*
G04 #@! TO.C,R121*
X102611628Y-129059809D02*
X102764028Y-128817904D01*
X102872885Y-129059809D02*
X102872885Y-128551809D01*
X102698714Y-128551809D01*
X102655171Y-128576000D01*
X102633400Y-128600190D01*
X102611628Y-128648571D01*
X102611628Y-128721142D01*
X102633400Y-128769523D01*
X102655171Y-128793714D01*
X102698714Y-128817904D01*
X102872885Y-128817904D01*
X102176200Y-129059809D02*
X102437457Y-129059809D01*
X102306828Y-129059809D02*
X102306828Y-128551809D01*
X102350371Y-128624380D01*
X102393914Y-128672761D01*
X102437457Y-128696952D01*
X102002028Y-128600190D02*
X101980257Y-128576000D01*
X101936714Y-128551809D01*
X101827857Y-128551809D01*
X101784314Y-128576000D01*
X101762542Y-128600190D01*
X101740771Y-128648571D01*
X101740771Y-128696952D01*
X101762542Y-128769523D01*
X102023800Y-129059809D01*
X101740771Y-129059809D01*
X101305342Y-129059809D02*
X101566600Y-129059809D01*
X101435971Y-129059809D02*
X101435971Y-128551809D01*
X101479514Y-128624380D01*
X101523057Y-128672761D01*
X101566600Y-128696952D01*
G04 #@! TO.C,R120*
X78479809Y-169488371D02*
X78237904Y-169335971D01*
X78479809Y-169227114D02*
X77971809Y-169227114D01*
X77971809Y-169401285D01*
X77996000Y-169444828D01*
X78020190Y-169466600D01*
X78068571Y-169488371D01*
X78141142Y-169488371D01*
X78189523Y-169466600D01*
X78213714Y-169444828D01*
X78237904Y-169401285D01*
X78237904Y-169227114D01*
X78479809Y-169923800D02*
X78479809Y-169662542D01*
X78479809Y-169793171D02*
X77971809Y-169793171D01*
X78044380Y-169749628D01*
X78092761Y-169706085D01*
X78116952Y-169662542D01*
X78020190Y-170097971D02*
X77996000Y-170119742D01*
X77971809Y-170163285D01*
X77971809Y-170272142D01*
X77996000Y-170315685D01*
X78020190Y-170337457D01*
X78068571Y-170359228D01*
X78116952Y-170359228D01*
X78189523Y-170337457D01*
X78479809Y-170076200D01*
X78479809Y-170359228D01*
X77971809Y-170642257D02*
X77971809Y-170685800D01*
X77996000Y-170729342D01*
X78020190Y-170751114D01*
X78068571Y-170772885D01*
X78165333Y-170794657D01*
X78286285Y-170794657D01*
X78383047Y-170772885D01*
X78431428Y-170751114D01*
X78455619Y-170729342D01*
X78479809Y-170685800D01*
X78479809Y-170642257D01*
X78455619Y-170598714D01*
X78431428Y-170576942D01*
X78383047Y-170555171D01*
X78286285Y-170533400D01*
X78165333Y-170533400D01*
X78068571Y-170555171D01*
X78020190Y-170576942D01*
X77996000Y-170598714D01*
X77971809Y-170642257D01*
G04 #@! TO.C,R119*
X85111628Y-164059809D02*
X85264028Y-163817904D01*
X85372885Y-164059809D02*
X85372885Y-163551809D01*
X85198714Y-163551809D01*
X85155171Y-163576000D01*
X85133400Y-163600190D01*
X85111628Y-163648571D01*
X85111628Y-163721142D01*
X85133400Y-163769523D01*
X85155171Y-163793714D01*
X85198714Y-163817904D01*
X85372885Y-163817904D01*
X84676200Y-164059809D02*
X84937457Y-164059809D01*
X84806828Y-164059809D02*
X84806828Y-163551809D01*
X84850371Y-163624380D01*
X84893914Y-163672761D01*
X84937457Y-163696952D01*
X84240771Y-164059809D02*
X84502028Y-164059809D01*
X84371400Y-164059809D02*
X84371400Y-163551809D01*
X84414942Y-163624380D01*
X84458485Y-163672761D01*
X84502028Y-163696952D01*
X84023057Y-164059809D02*
X83935971Y-164059809D01*
X83892428Y-164035619D01*
X83870657Y-164011428D01*
X83827114Y-163938857D01*
X83805342Y-163842095D01*
X83805342Y-163648571D01*
X83827114Y-163600190D01*
X83848885Y-163576000D01*
X83892428Y-163551809D01*
X83979514Y-163551809D01*
X84023057Y-163576000D01*
X84044828Y-163600190D01*
X84066600Y-163648571D01*
X84066600Y-163769523D01*
X84044828Y-163817904D01*
X84023057Y-163842095D01*
X83979514Y-163866285D01*
X83892428Y-163866285D01*
X83848885Y-163842095D01*
X83827114Y-163817904D01*
X83805342Y-163769523D01*
G04 #@! TO.C,R118*
X85111628Y-146559809D02*
X85264028Y-146317904D01*
X85372885Y-146559809D02*
X85372885Y-146051809D01*
X85198714Y-146051809D01*
X85155171Y-146076000D01*
X85133400Y-146100190D01*
X85111628Y-146148571D01*
X85111628Y-146221142D01*
X85133400Y-146269523D01*
X85155171Y-146293714D01*
X85198714Y-146317904D01*
X85372885Y-146317904D01*
X84676200Y-146559809D02*
X84937457Y-146559809D01*
X84806828Y-146559809D02*
X84806828Y-146051809D01*
X84850371Y-146124380D01*
X84893914Y-146172761D01*
X84937457Y-146196952D01*
X84240771Y-146559809D02*
X84502028Y-146559809D01*
X84371400Y-146559809D02*
X84371400Y-146051809D01*
X84414942Y-146124380D01*
X84458485Y-146172761D01*
X84502028Y-146196952D01*
X83979514Y-146269523D02*
X84023057Y-146245333D01*
X84044828Y-146221142D01*
X84066600Y-146172761D01*
X84066600Y-146148571D01*
X84044828Y-146100190D01*
X84023057Y-146076000D01*
X83979514Y-146051809D01*
X83892428Y-146051809D01*
X83848885Y-146076000D01*
X83827114Y-146100190D01*
X83805342Y-146148571D01*
X83805342Y-146172761D01*
X83827114Y-146221142D01*
X83848885Y-146245333D01*
X83892428Y-146269523D01*
X83979514Y-146269523D01*
X84023057Y-146293714D01*
X84044828Y-146317904D01*
X84066600Y-146366285D01*
X84066600Y-146463047D01*
X84044828Y-146511428D01*
X84023057Y-146535619D01*
X83979514Y-146559809D01*
X83892428Y-146559809D01*
X83848885Y-146535619D01*
X83827114Y-146511428D01*
X83805342Y-146463047D01*
X83805342Y-146366285D01*
X83827114Y-146317904D01*
X83848885Y-146293714D01*
X83892428Y-146269523D01*
G04 #@! TO.C,R117*
X85111628Y-129059809D02*
X85264028Y-128817904D01*
X85372885Y-129059809D02*
X85372885Y-128551809D01*
X85198714Y-128551809D01*
X85155171Y-128576000D01*
X85133400Y-128600190D01*
X85111628Y-128648571D01*
X85111628Y-128721142D01*
X85133400Y-128769523D01*
X85155171Y-128793714D01*
X85198714Y-128817904D01*
X85372885Y-128817904D01*
X84676200Y-129059809D02*
X84937457Y-129059809D01*
X84806828Y-129059809D02*
X84806828Y-128551809D01*
X84850371Y-128624380D01*
X84893914Y-128672761D01*
X84937457Y-128696952D01*
X84240771Y-129059809D02*
X84502028Y-129059809D01*
X84371400Y-129059809D02*
X84371400Y-128551809D01*
X84414942Y-128624380D01*
X84458485Y-128672761D01*
X84502028Y-128696952D01*
X84088371Y-128551809D02*
X83783571Y-128551809D01*
X83979514Y-129059809D01*
G04 #@! TO.C,R116*
X111311628Y-183059809D02*
X111464028Y-182817904D01*
X111572885Y-183059809D02*
X111572885Y-182551809D01*
X111398714Y-182551809D01*
X111355171Y-182576000D01*
X111333400Y-182600190D01*
X111311628Y-182648571D01*
X111311628Y-182721142D01*
X111333400Y-182769523D01*
X111355171Y-182793714D01*
X111398714Y-182817904D01*
X111572885Y-182817904D01*
X110876200Y-183059809D02*
X111137457Y-183059809D01*
X111006828Y-183059809D02*
X111006828Y-182551809D01*
X111050371Y-182624380D01*
X111093914Y-182672761D01*
X111137457Y-182696952D01*
X110440771Y-183059809D02*
X110702028Y-183059809D01*
X110571400Y-183059809D02*
X110571400Y-182551809D01*
X110614942Y-182624380D01*
X110658485Y-182672761D01*
X110702028Y-182696952D01*
X110048885Y-182551809D02*
X110135971Y-182551809D01*
X110179514Y-182576000D01*
X110201285Y-182600190D01*
X110244828Y-182672761D01*
X110266600Y-182769523D01*
X110266600Y-182963047D01*
X110244828Y-183011428D01*
X110223057Y-183035619D01*
X110179514Y-183059809D01*
X110092428Y-183059809D01*
X110048885Y-183035619D01*
X110027114Y-183011428D01*
X110005342Y-182963047D01*
X110005342Y-182842095D01*
X110027114Y-182793714D01*
X110048885Y-182769523D01*
X110092428Y-182745333D01*
X110179514Y-182745333D01*
X110223057Y-182769523D01*
X110244828Y-182793714D01*
X110266600Y-182842095D01*
G04 #@! TO.C,R115*
X93811628Y-183059809D02*
X93964028Y-182817904D01*
X94072885Y-183059809D02*
X94072885Y-182551809D01*
X93898714Y-182551809D01*
X93855171Y-182576000D01*
X93833400Y-182600190D01*
X93811628Y-182648571D01*
X93811628Y-182721142D01*
X93833400Y-182769523D01*
X93855171Y-182793714D01*
X93898714Y-182817904D01*
X94072885Y-182817904D01*
X93376200Y-183059809D02*
X93637457Y-183059809D01*
X93506828Y-183059809D02*
X93506828Y-182551809D01*
X93550371Y-182624380D01*
X93593914Y-182672761D01*
X93637457Y-182696952D01*
X92940771Y-183059809D02*
X93202028Y-183059809D01*
X93071400Y-183059809D02*
X93071400Y-182551809D01*
X93114942Y-182624380D01*
X93158485Y-182672761D01*
X93202028Y-182696952D01*
X92527114Y-182551809D02*
X92744828Y-182551809D01*
X92766600Y-182793714D01*
X92744828Y-182769523D01*
X92701285Y-182745333D01*
X92592428Y-182745333D01*
X92548885Y-182769523D01*
X92527114Y-182793714D01*
X92505342Y-182842095D01*
X92505342Y-182963047D01*
X92527114Y-183011428D01*
X92548885Y-183035619D01*
X92592428Y-183059809D01*
X92701285Y-183059809D01*
X92744828Y-183035619D01*
X92766600Y-183011428D01*
G04 #@! TO.C,R114*
X76411628Y-183059809D02*
X76564028Y-182817904D01*
X76672885Y-183059809D02*
X76672885Y-182551809D01*
X76498714Y-182551809D01*
X76455171Y-182576000D01*
X76433400Y-182600190D01*
X76411628Y-182648571D01*
X76411628Y-182721142D01*
X76433400Y-182769523D01*
X76455171Y-182793714D01*
X76498714Y-182817904D01*
X76672885Y-182817904D01*
X75976200Y-183059809D02*
X76237457Y-183059809D01*
X76106828Y-183059809D02*
X76106828Y-182551809D01*
X76150371Y-182624380D01*
X76193914Y-182672761D01*
X76237457Y-182696952D01*
X75540771Y-183059809D02*
X75802028Y-183059809D01*
X75671400Y-183059809D02*
X75671400Y-182551809D01*
X75714942Y-182624380D01*
X75758485Y-182672761D01*
X75802028Y-182696952D01*
X75148885Y-182721142D02*
X75148885Y-183059809D01*
X75257742Y-182527619D02*
X75366600Y-182890476D01*
X75083571Y-182890476D01*
G04 #@! TO.C,R113*
X67611628Y-164059809D02*
X67764028Y-163817904D01*
X67872885Y-164059809D02*
X67872885Y-163551809D01*
X67698714Y-163551809D01*
X67655171Y-163576000D01*
X67633400Y-163600190D01*
X67611628Y-163648571D01*
X67611628Y-163721142D01*
X67633400Y-163769523D01*
X67655171Y-163793714D01*
X67698714Y-163817904D01*
X67872885Y-163817904D01*
X67176200Y-164059809D02*
X67437457Y-164059809D01*
X67306828Y-164059809D02*
X67306828Y-163551809D01*
X67350371Y-163624380D01*
X67393914Y-163672761D01*
X67437457Y-163696952D01*
X66740771Y-164059809D02*
X67002028Y-164059809D01*
X66871400Y-164059809D02*
X66871400Y-163551809D01*
X66914942Y-163624380D01*
X66958485Y-163672761D01*
X67002028Y-163696952D01*
X66588371Y-163551809D02*
X66305342Y-163551809D01*
X66457742Y-163745333D01*
X66392428Y-163745333D01*
X66348885Y-163769523D01*
X66327114Y-163793714D01*
X66305342Y-163842095D01*
X66305342Y-163963047D01*
X66327114Y-164011428D01*
X66348885Y-164035619D01*
X66392428Y-164059809D01*
X66523057Y-164059809D01*
X66566600Y-164035619D01*
X66588371Y-164011428D01*
G04 #@! TO.C,R112*
X67611628Y-146559809D02*
X67764028Y-146317904D01*
X67872885Y-146559809D02*
X67872885Y-146051809D01*
X67698714Y-146051809D01*
X67655171Y-146076000D01*
X67633400Y-146100190D01*
X67611628Y-146148571D01*
X67611628Y-146221142D01*
X67633400Y-146269523D01*
X67655171Y-146293714D01*
X67698714Y-146317904D01*
X67872885Y-146317904D01*
X67176200Y-146559809D02*
X67437457Y-146559809D01*
X67306828Y-146559809D02*
X67306828Y-146051809D01*
X67350371Y-146124380D01*
X67393914Y-146172761D01*
X67437457Y-146196952D01*
X66740771Y-146559809D02*
X67002028Y-146559809D01*
X66871400Y-146559809D02*
X66871400Y-146051809D01*
X66914942Y-146124380D01*
X66958485Y-146172761D01*
X67002028Y-146196952D01*
X66566600Y-146100190D02*
X66544828Y-146076000D01*
X66501285Y-146051809D01*
X66392428Y-146051809D01*
X66348885Y-146076000D01*
X66327114Y-146100190D01*
X66305342Y-146148571D01*
X66305342Y-146196952D01*
X66327114Y-146269523D01*
X66588371Y-146559809D01*
X66305342Y-146559809D01*
G04 #@! TO.C,R111*
X67611628Y-129059809D02*
X67764028Y-128817904D01*
X67872885Y-129059809D02*
X67872885Y-128551809D01*
X67698714Y-128551809D01*
X67655171Y-128576000D01*
X67633400Y-128600190D01*
X67611628Y-128648571D01*
X67611628Y-128721142D01*
X67633400Y-128769523D01*
X67655171Y-128793714D01*
X67698714Y-128817904D01*
X67872885Y-128817904D01*
X67176200Y-129059809D02*
X67437457Y-129059809D01*
X67306828Y-129059809D02*
X67306828Y-128551809D01*
X67350371Y-128624380D01*
X67393914Y-128672761D01*
X67437457Y-128696952D01*
X66740771Y-129059809D02*
X67002028Y-129059809D01*
X66871400Y-129059809D02*
X66871400Y-128551809D01*
X66914942Y-128624380D01*
X66958485Y-128672761D01*
X67002028Y-128696952D01*
X66305342Y-129059809D02*
X66566600Y-129059809D01*
X66435971Y-129059809D02*
X66435971Y-128551809D01*
X66479514Y-128624380D01*
X66523057Y-128672761D01*
X66566600Y-128696952D01*
G04 #@! TO.C,R110*
X111499809Y-175488371D02*
X111257904Y-175335971D01*
X111499809Y-175227114D02*
X110991809Y-175227114D01*
X110991809Y-175401285D01*
X111016000Y-175444828D01*
X111040190Y-175466600D01*
X111088571Y-175488371D01*
X111161142Y-175488371D01*
X111209523Y-175466600D01*
X111233714Y-175444828D01*
X111257904Y-175401285D01*
X111257904Y-175227114D01*
X111499809Y-175923800D02*
X111499809Y-175662542D01*
X111499809Y-175793171D02*
X110991809Y-175793171D01*
X111064380Y-175749628D01*
X111112761Y-175706085D01*
X111136952Y-175662542D01*
X111499809Y-176359228D02*
X111499809Y-176097971D01*
X111499809Y-176228600D02*
X110991809Y-176228600D01*
X111064380Y-176185057D01*
X111112761Y-176141514D01*
X111136952Y-176097971D01*
X110991809Y-176642257D02*
X110991809Y-176685800D01*
X111016000Y-176729342D01*
X111040190Y-176751114D01*
X111088571Y-176772885D01*
X111185333Y-176794657D01*
X111306285Y-176794657D01*
X111403047Y-176772885D01*
X111451428Y-176751114D01*
X111475619Y-176729342D01*
X111499809Y-176685800D01*
X111499809Y-176642257D01*
X111475619Y-176598714D01*
X111451428Y-176576942D01*
X111403047Y-176555171D01*
X111306285Y-176533400D01*
X111185333Y-176533400D01*
X111088571Y-176555171D01*
X111040190Y-176576942D01*
X111016000Y-176598714D01*
X110991809Y-176642257D01*
G04 #@! TO.C,R109*
X92511628Y-173959809D02*
X92664028Y-173717904D01*
X92772885Y-173959809D02*
X92772885Y-173451809D01*
X92598714Y-173451809D01*
X92555171Y-173476000D01*
X92533400Y-173500190D01*
X92511628Y-173548571D01*
X92511628Y-173621142D01*
X92533400Y-173669523D01*
X92555171Y-173693714D01*
X92598714Y-173717904D01*
X92772885Y-173717904D01*
X92076200Y-173959809D02*
X92337457Y-173959809D01*
X92206828Y-173959809D02*
X92206828Y-173451809D01*
X92250371Y-173524380D01*
X92293914Y-173572761D01*
X92337457Y-173596952D01*
X91793171Y-173451809D02*
X91749628Y-173451809D01*
X91706085Y-173476000D01*
X91684314Y-173500190D01*
X91662542Y-173548571D01*
X91640771Y-173645333D01*
X91640771Y-173766285D01*
X91662542Y-173863047D01*
X91684314Y-173911428D01*
X91706085Y-173935619D01*
X91749628Y-173959809D01*
X91793171Y-173959809D01*
X91836714Y-173935619D01*
X91858485Y-173911428D01*
X91880257Y-173863047D01*
X91902028Y-173766285D01*
X91902028Y-173645333D01*
X91880257Y-173548571D01*
X91858485Y-173500190D01*
X91836714Y-173476000D01*
X91793171Y-173451809D01*
X91423057Y-173959809D02*
X91335971Y-173959809D01*
X91292428Y-173935619D01*
X91270657Y-173911428D01*
X91227114Y-173838857D01*
X91205342Y-173742095D01*
X91205342Y-173548571D01*
X91227114Y-173500190D01*
X91248885Y-173476000D01*
X91292428Y-173451809D01*
X91379514Y-173451809D01*
X91423057Y-173476000D01*
X91444828Y-173500190D01*
X91466600Y-173548571D01*
X91466600Y-173669523D01*
X91444828Y-173717904D01*
X91423057Y-173742095D01*
X91379514Y-173766285D01*
X91292428Y-173766285D01*
X91248885Y-173742095D01*
X91227114Y-173717904D01*
X91205342Y-173669523D01*
G04 #@! TO.C,R108*
X75511628Y-173959809D02*
X75664028Y-173717904D01*
X75772885Y-173959809D02*
X75772885Y-173451809D01*
X75598714Y-173451809D01*
X75555171Y-173476000D01*
X75533400Y-173500190D01*
X75511628Y-173548571D01*
X75511628Y-173621142D01*
X75533400Y-173669523D01*
X75555171Y-173693714D01*
X75598714Y-173717904D01*
X75772885Y-173717904D01*
X75076200Y-173959809D02*
X75337457Y-173959809D01*
X75206828Y-173959809D02*
X75206828Y-173451809D01*
X75250371Y-173524380D01*
X75293914Y-173572761D01*
X75337457Y-173596952D01*
X74793171Y-173451809D02*
X74749628Y-173451809D01*
X74706085Y-173476000D01*
X74684314Y-173500190D01*
X74662542Y-173548571D01*
X74640771Y-173645333D01*
X74640771Y-173766285D01*
X74662542Y-173863047D01*
X74684314Y-173911428D01*
X74706085Y-173935619D01*
X74749628Y-173959809D01*
X74793171Y-173959809D01*
X74836714Y-173935619D01*
X74858485Y-173911428D01*
X74880257Y-173863047D01*
X74902028Y-173766285D01*
X74902028Y-173645333D01*
X74880257Y-173548571D01*
X74858485Y-173500190D01*
X74836714Y-173476000D01*
X74793171Y-173451809D01*
X74379514Y-173669523D02*
X74423057Y-173645333D01*
X74444828Y-173621142D01*
X74466600Y-173572761D01*
X74466600Y-173548571D01*
X74444828Y-173500190D01*
X74423057Y-173476000D01*
X74379514Y-173451809D01*
X74292428Y-173451809D01*
X74248885Y-173476000D01*
X74227114Y-173500190D01*
X74205342Y-173548571D01*
X74205342Y-173572761D01*
X74227114Y-173621142D01*
X74248885Y-173645333D01*
X74292428Y-173669523D01*
X74379514Y-173669523D01*
X74423057Y-173693714D01*
X74444828Y-173717904D01*
X74466600Y-173766285D01*
X74466600Y-173863047D01*
X74444828Y-173911428D01*
X74423057Y-173935619D01*
X74379514Y-173959809D01*
X74292428Y-173959809D01*
X74248885Y-173935619D01*
X74227114Y-173911428D01*
X74205342Y-173863047D01*
X74205342Y-173766285D01*
X74227114Y-173717904D01*
X74248885Y-173693714D01*
X74292428Y-173669523D01*
G04 #@! TO.C,R107*
X60399809Y-167888371D02*
X60157904Y-167735971D01*
X60399809Y-167627114D02*
X59891809Y-167627114D01*
X59891809Y-167801285D01*
X59916000Y-167844828D01*
X59940190Y-167866600D01*
X59988571Y-167888371D01*
X60061142Y-167888371D01*
X60109523Y-167866600D01*
X60133714Y-167844828D01*
X60157904Y-167801285D01*
X60157904Y-167627114D01*
X60399809Y-168323800D02*
X60399809Y-168062542D01*
X60399809Y-168193171D02*
X59891809Y-168193171D01*
X59964380Y-168149628D01*
X60012761Y-168106085D01*
X60036952Y-168062542D01*
X59891809Y-168606828D02*
X59891809Y-168650371D01*
X59916000Y-168693914D01*
X59940190Y-168715685D01*
X59988571Y-168737457D01*
X60085333Y-168759228D01*
X60206285Y-168759228D01*
X60303047Y-168737457D01*
X60351428Y-168715685D01*
X60375619Y-168693914D01*
X60399809Y-168650371D01*
X60399809Y-168606828D01*
X60375619Y-168563285D01*
X60351428Y-168541514D01*
X60303047Y-168519742D01*
X60206285Y-168497971D01*
X60085333Y-168497971D01*
X59988571Y-168519742D01*
X59940190Y-168541514D01*
X59916000Y-168563285D01*
X59891809Y-168606828D01*
X59891809Y-168911628D02*
X59891809Y-169216428D01*
X60399809Y-169020485D01*
G04 #@! TO.C,R106*
X63711628Y-170029809D02*
X63864028Y-169787904D01*
X63972885Y-170029809D02*
X63972885Y-169521809D01*
X63798714Y-169521809D01*
X63755171Y-169546000D01*
X63733400Y-169570190D01*
X63711628Y-169618571D01*
X63711628Y-169691142D01*
X63733400Y-169739523D01*
X63755171Y-169763714D01*
X63798714Y-169787904D01*
X63972885Y-169787904D01*
X63276200Y-170029809D02*
X63537457Y-170029809D01*
X63406828Y-170029809D02*
X63406828Y-169521809D01*
X63450371Y-169594380D01*
X63493914Y-169642761D01*
X63537457Y-169666952D01*
X62993171Y-169521809D02*
X62949628Y-169521809D01*
X62906085Y-169546000D01*
X62884314Y-169570190D01*
X62862542Y-169618571D01*
X62840771Y-169715333D01*
X62840771Y-169836285D01*
X62862542Y-169933047D01*
X62884314Y-169981428D01*
X62906085Y-170005619D01*
X62949628Y-170029809D01*
X62993171Y-170029809D01*
X63036714Y-170005619D01*
X63058485Y-169981428D01*
X63080257Y-169933047D01*
X63102028Y-169836285D01*
X63102028Y-169715333D01*
X63080257Y-169618571D01*
X63058485Y-169570190D01*
X63036714Y-169546000D01*
X62993171Y-169521809D01*
X62448885Y-169521809D02*
X62535971Y-169521809D01*
X62579514Y-169546000D01*
X62601285Y-169570190D01*
X62644828Y-169642761D01*
X62666600Y-169739523D01*
X62666600Y-169933047D01*
X62644828Y-169981428D01*
X62623057Y-170005619D01*
X62579514Y-170029809D01*
X62492428Y-170029809D01*
X62448885Y-170005619D01*
X62427114Y-169981428D01*
X62405342Y-169933047D01*
X62405342Y-169812095D01*
X62427114Y-169763714D01*
X62448885Y-169739523D01*
X62492428Y-169715333D01*
X62579514Y-169715333D01*
X62623057Y-169739523D01*
X62644828Y-169763714D01*
X62666600Y-169812095D01*
G04 #@! TO.C,R105*
X63711628Y-174099809D02*
X63864028Y-173857904D01*
X63972885Y-174099809D02*
X63972885Y-173591809D01*
X63798714Y-173591809D01*
X63755171Y-173616000D01*
X63733400Y-173640190D01*
X63711628Y-173688571D01*
X63711628Y-173761142D01*
X63733400Y-173809523D01*
X63755171Y-173833714D01*
X63798714Y-173857904D01*
X63972885Y-173857904D01*
X63276200Y-174099809D02*
X63537457Y-174099809D01*
X63406828Y-174099809D02*
X63406828Y-173591809D01*
X63450371Y-173664380D01*
X63493914Y-173712761D01*
X63537457Y-173736952D01*
X62993171Y-173591809D02*
X62949628Y-173591809D01*
X62906085Y-173616000D01*
X62884314Y-173640190D01*
X62862542Y-173688571D01*
X62840771Y-173785333D01*
X62840771Y-173906285D01*
X62862542Y-174003047D01*
X62884314Y-174051428D01*
X62906085Y-174075619D01*
X62949628Y-174099809D01*
X62993171Y-174099809D01*
X63036714Y-174075619D01*
X63058485Y-174051428D01*
X63080257Y-174003047D01*
X63102028Y-173906285D01*
X63102028Y-173785333D01*
X63080257Y-173688571D01*
X63058485Y-173640190D01*
X63036714Y-173616000D01*
X62993171Y-173591809D01*
X62427114Y-173591809D02*
X62644828Y-173591809D01*
X62666600Y-173833714D01*
X62644828Y-173809523D01*
X62601285Y-173785333D01*
X62492428Y-173785333D01*
X62448885Y-173809523D01*
X62427114Y-173833714D01*
X62405342Y-173882095D01*
X62405342Y-174003047D01*
X62427114Y-174051428D01*
X62448885Y-174075619D01*
X62492428Y-174099809D01*
X62601285Y-174099809D01*
X62644828Y-174075619D01*
X62666600Y-174051428D01*
G04 #@! TO.C,C113*
X112511628Y-172911428D02*
X112533400Y-172935619D01*
X112598714Y-172959809D01*
X112642257Y-172959809D01*
X112707571Y-172935619D01*
X112751114Y-172887238D01*
X112772885Y-172838857D01*
X112794657Y-172742095D01*
X112794657Y-172669523D01*
X112772885Y-172572761D01*
X112751114Y-172524380D01*
X112707571Y-172476000D01*
X112642257Y-172451809D01*
X112598714Y-172451809D01*
X112533400Y-172476000D01*
X112511628Y-172500190D01*
X112076200Y-172959809D02*
X112337457Y-172959809D01*
X112206828Y-172959809D02*
X112206828Y-172451809D01*
X112250371Y-172524380D01*
X112293914Y-172572761D01*
X112337457Y-172596952D01*
X111640771Y-172959809D02*
X111902028Y-172959809D01*
X111771400Y-172959809D02*
X111771400Y-172451809D01*
X111814942Y-172524380D01*
X111858485Y-172572761D01*
X111902028Y-172596952D01*
X111488371Y-172451809D02*
X111205342Y-172451809D01*
X111357742Y-172645333D01*
X111292428Y-172645333D01*
X111248885Y-172669523D01*
X111227114Y-172693714D01*
X111205342Y-172742095D01*
X111205342Y-172863047D01*
X111227114Y-172911428D01*
X111248885Y-172935619D01*
X111292428Y-172959809D01*
X111423057Y-172959809D01*
X111466600Y-172935619D01*
X111488371Y-172911428D01*
G04 #@! TO.C,C112*
X92451428Y-176488371D02*
X92475619Y-176466600D01*
X92499809Y-176401285D01*
X92499809Y-176357742D01*
X92475619Y-176292428D01*
X92427238Y-176248885D01*
X92378857Y-176227114D01*
X92282095Y-176205342D01*
X92209523Y-176205342D01*
X92112761Y-176227114D01*
X92064380Y-176248885D01*
X92016000Y-176292428D01*
X91991809Y-176357742D01*
X91991809Y-176401285D01*
X92016000Y-176466600D01*
X92040190Y-176488371D01*
X92499809Y-176923800D02*
X92499809Y-176662542D01*
X92499809Y-176793171D02*
X91991809Y-176793171D01*
X92064380Y-176749628D01*
X92112761Y-176706085D01*
X92136952Y-176662542D01*
X92499809Y-177359228D02*
X92499809Y-177097971D01*
X92499809Y-177228600D02*
X91991809Y-177228600D01*
X92064380Y-177185057D01*
X92112761Y-177141514D01*
X92136952Y-177097971D01*
X92040190Y-177533400D02*
X92016000Y-177555171D01*
X91991809Y-177598714D01*
X91991809Y-177707571D01*
X92016000Y-177751114D01*
X92040190Y-177772885D01*
X92088571Y-177794657D01*
X92136952Y-177794657D01*
X92209523Y-177772885D01*
X92499809Y-177511628D01*
X92499809Y-177794657D01*
G04 #@! TO.C,C111*
X74511628Y-178451428D02*
X74533400Y-178475619D01*
X74598714Y-178499809D01*
X74642257Y-178499809D01*
X74707571Y-178475619D01*
X74751114Y-178427238D01*
X74772885Y-178378857D01*
X74794657Y-178282095D01*
X74794657Y-178209523D01*
X74772885Y-178112761D01*
X74751114Y-178064380D01*
X74707571Y-178016000D01*
X74642257Y-177991809D01*
X74598714Y-177991809D01*
X74533400Y-178016000D01*
X74511628Y-178040190D01*
X74076200Y-178499809D02*
X74337457Y-178499809D01*
X74206828Y-178499809D02*
X74206828Y-177991809D01*
X74250371Y-178064380D01*
X74293914Y-178112761D01*
X74337457Y-178136952D01*
X73640771Y-178499809D02*
X73902028Y-178499809D01*
X73771400Y-178499809D02*
X73771400Y-177991809D01*
X73814942Y-178064380D01*
X73858485Y-178112761D01*
X73902028Y-178136952D01*
X73205342Y-178499809D02*
X73466600Y-178499809D01*
X73335971Y-178499809D02*
X73335971Y-177991809D01*
X73379514Y-178064380D01*
X73423057Y-178112761D01*
X73466600Y-178136952D01*
G04 #@! TO.C,C110*
X53261428Y-150338371D02*
X53285619Y-150316600D01*
X53309809Y-150251285D01*
X53309809Y-150207742D01*
X53285619Y-150142428D01*
X53237238Y-150098885D01*
X53188857Y-150077114D01*
X53092095Y-150055342D01*
X53019523Y-150055342D01*
X52922761Y-150077114D01*
X52874380Y-150098885D01*
X52826000Y-150142428D01*
X52801809Y-150207742D01*
X52801809Y-150251285D01*
X52826000Y-150316600D01*
X52850190Y-150338371D01*
X53309809Y-150773800D02*
X53309809Y-150512542D01*
X53309809Y-150643171D02*
X52801809Y-150643171D01*
X52874380Y-150599628D01*
X52922761Y-150556085D01*
X52946952Y-150512542D01*
X53309809Y-151209228D02*
X53309809Y-150947971D01*
X53309809Y-151078600D02*
X52801809Y-151078600D01*
X52874380Y-151035057D01*
X52922761Y-150991514D01*
X52946952Y-150947971D01*
X52801809Y-151492257D02*
X52801809Y-151535800D01*
X52826000Y-151579342D01*
X52850190Y-151601114D01*
X52898571Y-151622885D01*
X52995333Y-151644657D01*
X53116285Y-151644657D01*
X53213047Y-151622885D01*
X53261428Y-151601114D01*
X53285619Y-151579342D01*
X53309809Y-151535800D01*
X53309809Y-151492257D01*
X53285619Y-151448714D01*
X53261428Y-151426942D01*
X53213047Y-151405171D01*
X53116285Y-151383400D01*
X52995333Y-151383400D01*
X52898571Y-151405171D01*
X52850190Y-151426942D01*
X52826000Y-151448714D01*
X52801809Y-151492257D01*
G04 #@! TO.C,C109*
X50361628Y-157751428D02*
X50383400Y-157775619D01*
X50448714Y-157799809D01*
X50492257Y-157799809D01*
X50557571Y-157775619D01*
X50601114Y-157727238D01*
X50622885Y-157678857D01*
X50644657Y-157582095D01*
X50644657Y-157509523D01*
X50622885Y-157412761D01*
X50601114Y-157364380D01*
X50557571Y-157316000D01*
X50492257Y-157291809D01*
X50448714Y-157291809D01*
X50383400Y-157316000D01*
X50361628Y-157340190D01*
X49926200Y-157799809D02*
X50187457Y-157799809D01*
X50056828Y-157799809D02*
X50056828Y-157291809D01*
X50100371Y-157364380D01*
X50143914Y-157412761D01*
X50187457Y-157436952D01*
X49643171Y-157291809D02*
X49599628Y-157291809D01*
X49556085Y-157316000D01*
X49534314Y-157340190D01*
X49512542Y-157388571D01*
X49490771Y-157485333D01*
X49490771Y-157606285D01*
X49512542Y-157703047D01*
X49534314Y-157751428D01*
X49556085Y-157775619D01*
X49599628Y-157799809D01*
X49643171Y-157799809D01*
X49686714Y-157775619D01*
X49708485Y-157751428D01*
X49730257Y-157703047D01*
X49752028Y-157606285D01*
X49752028Y-157485333D01*
X49730257Y-157388571D01*
X49708485Y-157340190D01*
X49686714Y-157316000D01*
X49643171Y-157291809D01*
X49273057Y-157799809D02*
X49185971Y-157799809D01*
X49142428Y-157775619D01*
X49120657Y-157751428D01*
X49077114Y-157678857D01*
X49055342Y-157582095D01*
X49055342Y-157388571D01*
X49077114Y-157340190D01*
X49098885Y-157316000D01*
X49142428Y-157291809D01*
X49229514Y-157291809D01*
X49273057Y-157316000D01*
X49294828Y-157340190D01*
X49316600Y-157388571D01*
X49316600Y-157509523D01*
X49294828Y-157557904D01*
X49273057Y-157582095D01*
X49229514Y-157606285D01*
X49142428Y-157606285D01*
X49098885Y-157582095D01*
X49077114Y-157557904D01*
X49055342Y-157509523D01*
G04 #@! TO.C,C108*
X50211628Y-145001428D02*
X50233400Y-145025619D01*
X50298714Y-145049809D01*
X50342257Y-145049809D01*
X50407571Y-145025619D01*
X50451114Y-144977238D01*
X50472885Y-144928857D01*
X50494657Y-144832095D01*
X50494657Y-144759523D01*
X50472885Y-144662761D01*
X50451114Y-144614380D01*
X50407571Y-144566000D01*
X50342257Y-144541809D01*
X50298714Y-144541809D01*
X50233400Y-144566000D01*
X50211628Y-144590190D01*
X49776200Y-145049809D02*
X50037457Y-145049809D01*
X49906828Y-145049809D02*
X49906828Y-144541809D01*
X49950371Y-144614380D01*
X49993914Y-144662761D01*
X50037457Y-144686952D01*
X49493171Y-144541809D02*
X49449628Y-144541809D01*
X49406085Y-144566000D01*
X49384314Y-144590190D01*
X49362542Y-144638571D01*
X49340771Y-144735333D01*
X49340771Y-144856285D01*
X49362542Y-144953047D01*
X49384314Y-145001428D01*
X49406085Y-145025619D01*
X49449628Y-145049809D01*
X49493171Y-145049809D01*
X49536714Y-145025619D01*
X49558485Y-145001428D01*
X49580257Y-144953047D01*
X49602028Y-144856285D01*
X49602028Y-144735333D01*
X49580257Y-144638571D01*
X49558485Y-144590190D01*
X49536714Y-144566000D01*
X49493171Y-144541809D01*
X49079514Y-144759523D02*
X49123057Y-144735333D01*
X49144828Y-144711142D01*
X49166600Y-144662761D01*
X49166600Y-144638571D01*
X49144828Y-144590190D01*
X49123057Y-144566000D01*
X49079514Y-144541809D01*
X48992428Y-144541809D01*
X48948885Y-144566000D01*
X48927114Y-144590190D01*
X48905342Y-144638571D01*
X48905342Y-144662761D01*
X48927114Y-144711142D01*
X48948885Y-144735333D01*
X48992428Y-144759523D01*
X49079514Y-144759523D01*
X49123057Y-144783714D01*
X49144828Y-144807904D01*
X49166600Y-144856285D01*
X49166600Y-144953047D01*
X49144828Y-145001428D01*
X49123057Y-145025619D01*
X49079514Y-145049809D01*
X48992428Y-145049809D01*
X48948885Y-145025619D01*
X48927114Y-145001428D01*
X48905342Y-144953047D01*
X48905342Y-144856285D01*
X48927114Y-144807904D01*
X48948885Y-144783714D01*
X48992428Y-144759523D01*
G04 #@! TO.C,C107*
X41061428Y-148838371D02*
X41085619Y-148816600D01*
X41109809Y-148751285D01*
X41109809Y-148707742D01*
X41085619Y-148642428D01*
X41037238Y-148598885D01*
X40988857Y-148577114D01*
X40892095Y-148555342D01*
X40819523Y-148555342D01*
X40722761Y-148577114D01*
X40674380Y-148598885D01*
X40626000Y-148642428D01*
X40601809Y-148707742D01*
X40601809Y-148751285D01*
X40626000Y-148816600D01*
X40650190Y-148838371D01*
X41109809Y-149273800D02*
X41109809Y-149012542D01*
X41109809Y-149143171D02*
X40601809Y-149143171D01*
X40674380Y-149099628D01*
X40722761Y-149056085D01*
X40746952Y-149012542D01*
X40601809Y-149556828D02*
X40601809Y-149600371D01*
X40626000Y-149643914D01*
X40650190Y-149665685D01*
X40698571Y-149687457D01*
X40795333Y-149709228D01*
X40916285Y-149709228D01*
X41013047Y-149687457D01*
X41061428Y-149665685D01*
X41085619Y-149643914D01*
X41109809Y-149600371D01*
X41109809Y-149556828D01*
X41085619Y-149513285D01*
X41061428Y-149491514D01*
X41013047Y-149469742D01*
X40916285Y-149447971D01*
X40795333Y-149447971D01*
X40698571Y-149469742D01*
X40650190Y-149491514D01*
X40626000Y-149513285D01*
X40601809Y-149556828D01*
X40601809Y-149861628D02*
X40601809Y-150166428D01*
X41109809Y-149970485D01*
G04 #@! TO.C,C106*
X44711428Y-151326371D02*
X44735619Y-151304600D01*
X44759809Y-151239285D01*
X44759809Y-151195742D01*
X44735619Y-151130428D01*
X44687238Y-151086885D01*
X44638857Y-151065114D01*
X44542095Y-151043342D01*
X44469523Y-151043342D01*
X44372761Y-151065114D01*
X44324380Y-151086885D01*
X44276000Y-151130428D01*
X44251809Y-151195742D01*
X44251809Y-151239285D01*
X44276000Y-151304600D01*
X44300190Y-151326371D01*
X44759809Y-151761800D02*
X44759809Y-151500542D01*
X44759809Y-151631171D02*
X44251809Y-151631171D01*
X44324380Y-151587628D01*
X44372761Y-151544085D01*
X44396952Y-151500542D01*
X44251809Y-152044828D02*
X44251809Y-152088371D01*
X44276000Y-152131914D01*
X44300190Y-152153685D01*
X44348571Y-152175457D01*
X44445333Y-152197228D01*
X44566285Y-152197228D01*
X44663047Y-152175457D01*
X44711428Y-152153685D01*
X44735619Y-152131914D01*
X44759809Y-152088371D01*
X44759809Y-152044828D01*
X44735619Y-152001285D01*
X44711428Y-151979514D01*
X44663047Y-151957742D01*
X44566285Y-151935971D01*
X44445333Y-151935971D01*
X44348571Y-151957742D01*
X44300190Y-151979514D01*
X44276000Y-152001285D01*
X44251809Y-152044828D01*
X44251809Y-152589114D02*
X44251809Y-152502028D01*
X44276000Y-152458485D01*
X44300190Y-152436714D01*
X44372761Y-152393171D01*
X44469523Y-152371400D01*
X44663047Y-152371400D01*
X44711428Y-152393171D01*
X44735619Y-152414942D01*
X44759809Y-152458485D01*
X44759809Y-152545571D01*
X44735619Y-152589114D01*
X44711428Y-152610885D01*
X44663047Y-152632657D01*
X44542095Y-152632657D01*
X44493714Y-152610885D01*
X44469523Y-152589114D01*
X44445333Y-152545571D01*
X44445333Y-152458485D01*
X44469523Y-152414942D01*
X44493714Y-152393171D01*
X44542095Y-152371400D01*
G04 #@! TO.C,C105*
D17*
X50409949Y-140228707D02*
X50433776Y-140252534D01*
X50505259Y-140276362D01*
X50552914Y-140276362D01*
X50624397Y-140252534D01*
X50672052Y-140204879D01*
X50695880Y-140157224D01*
X50719708Y-140061913D01*
X50719708Y-139990430D01*
X50695880Y-139895120D01*
X50672052Y-139847465D01*
X50624397Y-139799810D01*
X50552914Y-139775982D01*
X50505259Y-139775982D01*
X50433776Y-139799810D01*
X50409949Y-139823637D01*
X49933396Y-140276362D02*
X50219328Y-140276362D01*
X50076362Y-140276362D02*
X50076362Y-139775982D01*
X50124017Y-139847465D01*
X50171672Y-139895120D01*
X50219328Y-139918948D01*
X49623637Y-139775982D02*
X49575982Y-139775982D01*
X49528327Y-139799810D01*
X49504499Y-139823637D01*
X49480671Y-139871292D01*
X49456844Y-139966603D01*
X49456844Y-140085741D01*
X49480671Y-140181051D01*
X49504499Y-140228707D01*
X49528327Y-140252534D01*
X49575982Y-140276362D01*
X49623637Y-140276362D01*
X49671292Y-140252534D01*
X49695120Y-140228707D01*
X49718948Y-140181051D01*
X49742775Y-140085741D01*
X49742775Y-139966603D01*
X49718948Y-139871292D01*
X49695120Y-139823637D01*
X49671292Y-139799810D01*
X49623637Y-139775982D01*
X49004119Y-139775982D02*
X49242395Y-139775982D01*
X49266223Y-140014258D01*
X49242395Y-139990430D01*
X49194740Y-139966603D01*
X49075602Y-139966603D01*
X49027947Y-139990430D01*
X49004119Y-140014258D01*
X48980291Y-140061913D01*
X48980291Y-140181051D01*
X49004119Y-140228707D01*
X49027947Y-140252534D01*
X49075602Y-140276362D01*
X49194740Y-140276362D01*
X49242395Y-140252534D01*
X49266223Y-140228707D01*
G04 #@! TO.C,C104*
X55961207Y-150490050D02*
X55985034Y-150466223D01*
X56008862Y-150394740D01*
X56008862Y-150347085D01*
X55985034Y-150275602D01*
X55937379Y-150227947D01*
X55889724Y-150204119D01*
X55794413Y-150180291D01*
X55722930Y-150180291D01*
X55627620Y-150204119D01*
X55579965Y-150227947D01*
X55532310Y-150275602D01*
X55508482Y-150347085D01*
X55508482Y-150394740D01*
X55532310Y-150466223D01*
X55556137Y-150490050D01*
X56008862Y-150966603D02*
X56008862Y-150680671D01*
X56008862Y-150823637D02*
X55508482Y-150823637D01*
X55579965Y-150775982D01*
X55627620Y-150728327D01*
X55651448Y-150680671D01*
X55508482Y-151276362D02*
X55508482Y-151324017D01*
X55532310Y-151371672D01*
X55556137Y-151395500D01*
X55603792Y-151419328D01*
X55699103Y-151443155D01*
X55818241Y-151443155D01*
X55913551Y-151419328D01*
X55961207Y-151395500D01*
X55985034Y-151371672D01*
X56008862Y-151324017D01*
X56008862Y-151276362D01*
X55985034Y-151228707D01*
X55961207Y-151204879D01*
X55913551Y-151181051D01*
X55818241Y-151157224D01*
X55699103Y-151157224D01*
X55603792Y-151181051D01*
X55556137Y-151204879D01*
X55532310Y-151228707D01*
X55508482Y-151276362D01*
X55675275Y-151872052D02*
X56008862Y-151872052D01*
X55484654Y-151752914D02*
X55842069Y-151633776D01*
X55842069Y-151943535D01*
G04 #@! TO.C,Q107*
D15*
X129347619Y-168752380D02*
X129300000Y-168657142D01*
X129204761Y-168561904D01*
X129061904Y-168419047D01*
X129014285Y-168323809D01*
X129014285Y-168228571D01*
X129252380Y-168276190D02*
X129204761Y-168180952D01*
X129109523Y-168085714D01*
X128919047Y-168038095D01*
X128585714Y-168038095D01*
X128395238Y-168085714D01*
X128300000Y-168180952D01*
X128252380Y-168276190D01*
X128252380Y-168466666D01*
X128300000Y-168561904D01*
X128395238Y-168657142D01*
X128585714Y-168704761D01*
X128919047Y-168704761D01*
X129109523Y-168657142D01*
X129204761Y-168561904D01*
X129252380Y-168466666D01*
X129252380Y-168276190D01*
X129252380Y-169657142D02*
X129252380Y-169085714D01*
X129252380Y-169371428D02*
X128252380Y-169371428D01*
X128395238Y-169276190D01*
X128490476Y-169180952D01*
X128538095Y-169085714D01*
X128252380Y-170276190D02*
X128252380Y-170371428D01*
X128300000Y-170466666D01*
X128347619Y-170514285D01*
X128442857Y-170561904D01*
X128633333Y-170609523D01*
X128871428Y-170609523D01*
X129061904Y-170561904D01*
X129157142Y-170514285D01*
X129204761Y-170466666D01*
X129252380Y-170371428D01*
X129252380Y-170276190D01*
X129204761Y-170180952D01*
X129157142Y-170133333D01*
X129061904Y-170085714D01*
X128871428Y-170038095D01*
X128633333Y-170038095D01*
X128442857Y-170085714D01*
X128347619Y-170133333D01*
X128300000Y-170180952D01*
X128252380Y-170276190D01*
X128252380Y-170942857D02*
X128252380Y-171609523D01*
X129252380Y-171180952D01*
G04 #@! TO.C,Q106*
X105897619Y-168752380D02*
X105850000Y-168657142D01*
X105754761Y-168561904D01*
X105611904Y-168419047D01*
X105564285Y-168323809D01*
X105564285Y-168228571D01*
X105802380Y-168276190D02*
X105754761Y-168180952D01*
X105659523Y-168085714D01*
X105469047Y-168038095D01*
X105135714Y-168038095D01*
X104945238Y-168085714D01*
X104850000Y-168180952D01*
X104802380Y-168276190D01*
X104802380Y-168466666D01*
X104850000Y-168561904D01*
X104945238Y-168657142D01*
X105135714Y-168704761D01*
X105469047Y-168704761D01*
X105659523Y-168657142D01*
X105754761Y-168561904D01*
X105802380Y-168466666D01*
X105802380Y-168276190D01*
X105802380Y-169657142D02*
X105802380Y-169085714D01*
X105802380Y-169371428D02*
X104802380Y-169371428D01*
X104945238Y-169276190D01*
X105040476Y-169180952D01*
X105088095Y-169085714D01*
X104802380Y-170276190D02*
X104802380Y-170371428D01*
X104850000Y-170466666D01*
X104897619Y-170514285D01*
X104992857Y-170561904D01*
X105183333Y-170609523D01*
X105421428Y-170609523D01*
X105611904Y-170561904D01*
X105707142Y-170514285D01*
X105754761Y-170466666D01*
X105802380Y-170371428D01*
X105802380Y-170276190D01*
X105754761Y-170180952D01*
X105707142Y-170133333D01*
X105611904Y-170085714D01*
X105421428Y-170038095D01*
X105183333Y-170038095D01*
X104992857Y-170085714D01*
X104897619Y-170133333D01*
X104850000Y-170180952D01*
X104802380Y-170276190D01*
X104802380Y-171466666D02*
X104802380Y-171276190D01*
X104850000Y-171180952D01*
X104897619Y-171133333D01*
X105040476Y-171038095D01*
X105230952Y-170990476D01*
X105611904Y-170990476D01*
X105707142Y-171038095D01*
X105754761Y-171085714D01*
X105802380Y-171180952D01*
X105802380Y-171371428D01*
X105754761Y-171466666D01*
X105707142Y-171514285D01*
X105611904Y-171561904D01*
X105373809Y-171561904D01*
X105278571Y-171514285D01*
X105230952Y-171466666D01*
X105183333Y-171371428D01*
X105183333Y-171180952D01*
X105230952Y-171085714D01*
X105278571Y-171038095D01*
X105373809Y-170990476D01*
G04 #@! TO.C,Q105*
X87447619Y-182147619D02*
X87542857Y-182100000D01*
X87638095Y-182004761D01*
X87780952Y-181861904D01*
X87876190Y-181814285D01*
X87971428Y-181814285D01*
X87923809Y-182052380D02*
X88019047Y-182004761D01*
X88114285Y-181909523D01*
X88161904Y-181719047D01*
X88161904Y-181385714D01*
X88114285Y-181195238D01*
X88019047Y-181100000D01*
X87923809Y-181052380D01*
X87733333Y-181052380D01*
X87638095Y-181100000D01*
X87542857Y-181195238D01*
X87495238Y-181385714D01*
X87495238Y-181719047D01*
X87542857Y-181909523D01*
X87638095Y-182004761D01*
X87733333Y-182052380D01*
X87923809Y-182052380D01*
X86542857Y-182052380D02*
X87114285Y-182052380D01*
X86828571Y-182052380D02*
X86828571Y-181052380D01*
X86923809Y-181195238D01*
X87019047Y-181290476D01*
X87114285Y-181338095D01*
X85923809Y-181052380D02*
X85828571Y-181052380D01*
X85733333Y-181100000D01*
X85685714Y-181147619D01*
X85638095Y-181242857D01*
X85590476Y-181433333D01*
X85590476Y-181671428D01*
X85638095Y-181861904D01*
X85685714Y-181957142D01*
X85733333Y-182004761D01*
X85828571Y-182052380D01*
X85923809Y-182052380D01*
X86019047Y-182004761D01*
X86066666Y-181957142D01*
X86114285Y-181861904D01*
X86161904Y-181671428D01*
X86161904Y-181433333D01*
X86114285Y-181242857D01*
X86066666Y-181147619D01*
X86019047Y-181100000D01*
X85923809Y-181052380D01*
X84685714Y-181052380D02*
X85161904Y-181052380D01*
X85209523Y-181528571D01*
X85161904Y-181480952D01*
X85066666Y-181433333D01*
X84828571Y-181433333D01*
X84733333Y-181480952D01*
X84685714Y-181528571D01*
X84638095Y-181623809D01*
X84638095Y-181861904D01*
X84685714Y-181957142D01*
X84733333Y-182004761D01*
X84828571Y-182052380D01*
X85066666Y-182052380D01*
X85161904Y-182004761D01*
X85209523Y-181957142D01*
G04 #@! TO.C,Q104*
X94347619Y-168752380D02*
X94300000Y-168657142D01*
X94204761Y-168561904D01*
X94061904Y-168419047D01*
X94014285Y-168323809D01*
X94014285Y-168228571D01*
X94252380Y-168276190D02*
X94204761Y-168180952D01*
X94109523Y-168085714D01*
X93919047Y-168038095D01*
X93585714Y-168038095D01*
X93395238Y-168085714D01*
X93300000Y-168180952D01*
X93252380Y-168276190D01*
X93252380Y-168466666D01*
X93300000Y-168561904D01*
X93395238Y-168657142D01*
X93585714Y-168704761D01*
X93919047Y-168704761D01*
X94109523Y-168657142D01*
X94204761Y-168561904D01*
X94252380Y-168466666D01*
X94252380Y-168276190D01*
X94252380Y-169657142D02*
X94252380Y-169085714D01*
X94252380Y-169371428D02*
X93252380Y-169371428D01*
X93395238Y-169276190D01*
X93490476Y-169180952D01*
X93538095Y-169085714D01*
X93252380Y-170276190D02*
X93252380Y-170371428D01*
X93300000Y-170466666D01*
X93347619Y-170514285D01*
X93442857Y-170561904D01*
X93633333Y-170609523D01*
X93871428Y-170609523D01*
X94061904Y-170561904D01*
X94157142Y-170514285D01*
X94204761Y-170466666D01*
X94252380Y-170371428D01*
X94252380Y-170276190D01*
X94204761Y-170180952D01*
X94157142Y-170133333D01*
X94061904Y-170085714D01*
X93871428Y-170038095D01*
X93633333Y-170038095D01*
X93442857Y-170085714D01*
X93347619Y-170133333D01*
X93300000Y-170180952D01*
X93252380Y-170276190D01*
X93585714Y-171466666D02*
X94252380Y-171466666D01*
X93204761Y-171228571D02*
X93919047Y-170990476D01*
X93919047Y-171609523D01*
G04 #@! TO.C,Q103*
X104947619Y-182147619D02*
X105042857Y-182100000D01*
X105138095Y-182004761D01*
X105280952Y-181861904D01*
X105376190Y-181814285D01*
X105471428Y-181814285D01*
X105423809Y-182052380D02*
X105519047Y-182004761D01*
X105614285Y-181909523D01*
X105661904Y-181719047D01*
X105661904Y-181385714D01*
X105614285Y-181195238D01*
X105519047Y-181100000D01*
X105423809Y-181052380D01*
X105233333Y-181052380D01*
X105138095Y-181100000D01*
X105042857Y-181195238D01*
X104995238Y-181385714D01*
X104995238Y-181719047D01*
X105042857Y-181909523D01*
X105138095Y-182004761D01*
X105233333Y-182052380D01*
X105423809Y-182052380D01*
X104042857Y-182052380D02*
X104614285Y-182052380D01*
X104328571Y-182052380D02*
X104328571Y-181052380D01*
X104423809Y-181195238D01*
X104519047Y-181290476D01*
X104614285Y-181338095D01*
X103423809Y-181052380D02*
X103328571Y-181052380D01*
X103233333Y-181100000D01*
X103185714Y-181147619D01*
X103138095Y-181242857D01*
X103090476Y-181433333D01*
X103090476Y-181671428D01*
X103138095Y-181861904D01*
X103185714Y-181957142D01*
X103233333Y-182004761D01*
X103328571Y-182052380D01*
X103423809Y-182052380D01*
X103519047Y-182004761D01*
X103566666Y-181957142D01*
X103614285Y-181861904D01*
X103661904Y-181671428D01*
X103661904Y-181433333D01*
X103614285Y-181242857D01*
X103566666Y-181147619D01*
X103519047Y-181100000D01*
X103423809Y-181052380D01*
X102757142Y-181052380D02*
X102138095Y-181052380D01*
X102471428Y-181433333D01*
X102328571Y-181433333D01*
X102233333Y-181480952D01*
X102185714Y-181528571D01*
X102138095Y-181623809D01*
X102138095Y-181861904D01*
X102185714Y-181957142D01*
X102233333Y-182004761D01*
X102328571Y-182052380D01*
X102614285Y-182052380D01*
X102709523Y-182004761D01*
X102757142Y-181957142D01*
G04 #@! TO.C,Q102*
X123047619Y-182147619D02*
X123142857Y-182100000D01*
X123238095Y-182004761D01*
X123380952Y-181861904D01*
X123476190Y-181814285D01*
X123571428Y-181814285D01*
X123523809Y-182052380D02*
X123619047Y-182004761D01*
X123714285Y-181909523D01*
X123761904Y-181719047D01*
X123761904Y-181385714D01*
X123714285Y-181195238D01*
X123619047Y-181100000D01*
X123523809Y-181052380D01*
X123333333Y-181052380D01*
X123238095Y-181100000D01*
X123142857Y-181195238D01*
X123095238Y-181385714D01*
X123095238Y-181719047D01*
X123142857Y-181909523D01*
X123238095Y-182004761D01*
X123333333Y-182052380D01*
X123523809Y-182052380D01*
X122142857Y-182052380D02*
X122714285Y-182052380D01*
X122428571Y-182052380D02*
X122428571Y-181052380D01*
X122523809Y-181195238D01*
X122619047Y-181290476D01*
X122714285Y-181338095D01*
X121523809Y-181052380D02*
X121428571Y-181052380D01*
X121333333Y-181100000D01*
X121285714Y-181147619D01*
X121238095Y-181242857D01*
X121190476Y-181433333D01*
X121190476Y-181671428D01*
X121238095Y-181861904D01*
X121285714Y-181957142D01*
X121333333Y-182004761D01*
X121428571Y-182052380D01*
X121523809Y-182052380D01*
X121619047Y-182004761D01*
X121666666Y-181957142D01*
X121714285Y-181861904D01*
X121761904Y-181671428D01*
X121761904Y-181433333D01*
X121714285Y-181242857D01*
X121666666Y-181147619D01*
X121619047Y-181100000D01*
X121523809Y-181052380D01*
X120809523Y-181147619D02*
X120761904Y-181100000D01*
X120666666Y-181052380D01*
X120428571Y-181052380D01*
X120333333Y-181100000D01*
X120285714Y-181147619D01*
X120238095Y-181242857D01*
X120238095Y-181338095D01*
X120285714Y-181480952D01*
X120857142Y-182052380D01*
X120238095Y-182052380D01*
G04 #@! TO.C,Q101*
X71647619Y-169702380D02*
X71600000Y-169607142D01*
X71504761Y-169511904D01*
X71361904Y-169369047D01*
X71314285Y-169273809D01*
X71314285Y-169178571D01*
X71552380Y-169226190D02*
X71504761Y-169130952D01*
X71409523Y-169035714D01*
X71219047Y-168988095D01*
X70885714Y-168988095D01*
X70695238Y-169035714D01*
X70600000Y-169130952D01*
X70552380Y-169226190D01*
X70552380Y-169416666D01*
X70600000Y-169511904D01*
X70695238Y-169607142D01*
X70885714Y-169654761D01*
X71219047Y-169654761D01*
X71409523Y-169607142D01*
X71504761Y-169511904D01*
X71552380Y-169416666D01*
X71552380Y-169226190D01*
X71552380Y-170607142D02*
X71552380Y-170035714D01*
X71552380Y-170321428D02*
X70552380Y-170321428D01*
X70695238Y-170226190D01*
X70790476Y-170130952D01*
X70838095Y-170035714D01*
X70552380Y-171226190D02*
X70552380Y-171321428D01*
X70600000Y-171416666D01*
X70647619Y-171464285D01*
X70742857Y-171511904D01*
X70933333Y-171559523D01*
X71171428Y-171559523D01*
X71361904Y-171511904D01*
X71457142Y-171464285D01*
X71504761Y-171416666D01*
X71552380Y-171321428D01*
X71552380Y-171226190D01*
X71504761Y-171130952D01*
X71457142Y-171083333D01*
X71361904Y-171035714D01*
X71171428Y-170988095D01*
X70933333Y-170988095D01*
X70742857Y-171035714D01*
X70647619Y-171083333D01*
X70600000Y-171130952D01*
X70552380Y-171226190D01*
X71552380Y-172511904D02*
X71552380Y-171940476D01*
X71552380Y-172226190D02*
X70552380Y-172226190D01*
X70695238Y-172130952D01*
X70790476Y-172035714D01*
X70838095Y-171940476D01*
G04 #@! TO.C,D112*
X134190476Y-152752380D02*
X134190476Y-151752380D01*
X133952380Y-151752380D01*
X133809523Y-151800000D01*
X133714285Y-151895238D01*
X133666666Y-151990476D01*
X133619047Y-152180952D01*
X133619047Y-152323809D01*
X133666666Y-152514285D01*
X133714285Y-152609523D01*
X133809523Y-152704761D01*
X133952380Y-152752380D01*
X134190476Y-152752380D01*
X132666666Y-152752380D02*
X133238095Y-152752380D01*
X132952380Y-152752380D02*
X132952380Y-151752380D01*
X133047619Y-151895238D01*
X133142857Y-151990476D01*
X133238095Y-152038095D01*
X131714285Y-152752380D02*
X132285714Y-152752380D01*
X132000000Y-152752380D02*
X132000000Y-151752380D01*
X132095238Y-151895238D01*
X132190476Y-151990476D01*
X132285714Y-152038095D01*
X131333333Y-151847619D02*
X131285714Y-151800000D01*
X131190476Y-151752380D01*
X130952380Y-151752380D01*
X130857142Y-151800000D01*
X130809523Y-151847619D01*
X130761904Y-151942857D01*
X130761904Y-152038095D01*
X130809523Y-152180952D01*
X131380952Y-152752380D01*
X130761904Y-152752380D01*
G04 #@! TO.C,D111*
X134190476Y-135252380D02*
X134190476Y-134252380D01*
X133952380Y-134252380D01*
X133809523Y-134300000D01*
X133714285Y-134395238D01*
X133666666Y-134490476D01*
X133619047Y-134680952D01*
X133619047Y-134823809D01*
X133666666Y-135014285D01*
X133714285Y-135109523D01*
X133809523Y-135204761D01*
X133952380Y-135252380D01*
X134190476Y-135252380D01*
X132666666Y-135252380D02*
X133238095Y-135252380D01*
X132952380Y-135252380D02*
X132952380Y-134252380D01*
X133047619Y-134395238D01*
X133142857Y-134490476D01*
X133238095Y-134538095D01*
X131714285Y-135252380D02*
X132285714Y-135252380D01*
X132000000Y-135252380D02*
X132000000Y-134252380D01*
X132095238Y-134395238D01*
X132190476Y-134490476D01*
X132285714Y-134538095D01*
X130761904Y-135252380D02*
X131333333Y-135252380D01*
X131047619Y-135252380D02*
X131047619Y-134252380D01*
X131142857Y-134395238D01*
X131238095Y-134490476D01*
X131333333Y-134538095D01*
G04 #@! TO.C,D110*
X134190476Y-117752380D02*
X134190476Y-116752380D01*
X133952380Y-116752380D01*
X133809523Y-116800000D01*
X133714285Y-116895238D01*
X133666666Y-116990476D01*
X133619047Y-117180952D01*
X133619047Y-117323809D01*
X133666666Y-117514285D01*
X133714285Y-117609523D01*
X133809523Y-117704761D01*
X133952380Y-117752380D01*
X134190476Y-117752380D01*
X132666666Y-117752380D02*
X133238095Y-117752380D01*
X132952380Y-117752380D02*
X132952380Y-116752380D01*
X133047619Y-116895238D01*
X133142857Y-116990476D01*
X133238095Y-117038095D01*
X131714285Y-117752380D02*
X132285714Y-117752380D01*
X132000000Y-117752380D02*
X132000000Y-116752380D01*
X132095238Y-116895238D01*
X132190476Y-116990476D01*
X132285714Y-117038095D01*
X131095238Y-116752380D02*
X131000000Y-116752380D01*
X130904761Y-116800000D01*
X130857142Y-116847619D01*
X130809523Y-116942857D01*
X130761904Y-117133333D01*
X130761904Y-117371428D01*
X130809523Y-117561904D01*
X130857142Y-117657142D01*
X130904761Y-117704761D01*
X131000000Y-117752380D01*
X131095238Y-117752380D01*
X131190476Y-117704761D01*
X131238095Y-117657142D01*
X131285714Y-117561904D01*
X131333333Y-117371428D01*
X131333333Y-117133333D01*
X131285714Y-116942857D01*
X131238095Y-116847619D01*
X131190476Y-116800000D01*
X131095238Y-116752380D01*
G04 #@! TO.C,D109*
X116690476Y-152752380D02*
X116690476Y-151752380D01*
X116452380Y-151752380D01*
X116309523Y-151800000D01*
X116214285Y-151895238D01*
X116166666Y-151990476D01*
X116119047Y-152180952D01*
X116119047Y-152323809D01*
X116166666Y-152514285D01*
X116214285Y-152609523D01*
X116309523Y-152704761D01*
X116452380Y-152752380D01*
X116690476Y-152752380D01*
X115166666Y-152752380D02*
X115738095Y-152752380D01*
X115452380Y-152752380D02*
X115452380Y-151752380D01*
X115547619Y-151895238D01*
X115642857Y-151990476D01*
X115738095Y-152038095D01*
X114547619Y-151752380D02*
X114452380Y-151752380D01*
X114357142Y-151800000D01*
X114309523Y-151847619D01*
X114261904Y-151942857D01*
X114214285Y-152133333D01*
X114214285Y-152371428D01*
X114261904Y-152561904D01*
X114309523Y-152657142D01*
X114357142Y-152704761D01*
X114452380Y-152752380D01*
X114547619Y-152752380D01*
X114642857Y-152704761D01*
X114690476Y-152657142D01*
X114738095Y-152561904D01*
X114785714Y-152371428D01*
X114785714Y-152133333D01*
X114738095Y-151942857D01*
X114690476Y-151847619D01*
X114642857Y-151800000D01*
X114547619Y-151752380D01*
X113738095Y-152752380D02*
X113547619Y-152752380D01*
X113452380Y-152704761D01*
X113404761Y-152657142D01*
X113309523Y-152514285D01*
X113261904Y-152323809D01*
X113261904Y-151942857D01*
X113309523Y-151847619D01*
X113357142Y-151800000D01*
X113452380Y-151752380D01*
X113642857Y-151752380D01*
X113738095Y-151800000D01*
X113785714Y-151847619D01*
X113833333Y-151942857D01*
X113833333Y-152180952D01*
X113785714Y-152276190D01*
X113738095Y-152323809D01*
X113642857Y-152371428D01*
X113452380Y-152371428D01*
X113357142Y-152323809D01*
X113309523Y-152276190D01*
X113261904Y-152180952D01*
G04 #@! TO.C,D108*
X116690476Y-135252380D02*
X116690476Y-134252380D01*
X116452380Y-134252380D01*
X116309523Y-134300000D01*
X116214285Y-134395238D01*
X116166666Y-134490476D01*
X116119047Y-134680952D01*
X116119047Y-134823809D01*
X116166666Y-135014285D01*
X116214285Y-135109523D01*
X116309523Y-135204761D01*
X116452380Y-135252380D01*
X116690476Y-135252380D01*
X115166666Y-135252380D02*
X115738095Y-135252380D01*
X115452380Y-135252380D02*
X115452380Y-134252380D01*
X115547619Y-134395238D01*
X115642857Y-134490476D01*
X115738095Y-134538095D01*
X114547619Y-134252380D02*
X114452380Y-134252380D01*
X114357142Y-134300000D01*
X114309523Y-134347619D01*
X114261904Y-134442857D01*
X114214285Y-134633333D01*
X114214285Y-134871428D01*
X114261904Y-135061904D01*
X114309523Y-135157142D01*
X114357142Y-135204761D01*
X114452380Y-135252380D01*
X114547619Y-135252380D01*
X114642857Y-135204761D01*
X114690476Y-135157142D01*
X114738095Y-135061904D01*
X114785714Y-134871428D01*
X114785714Y-134633333D01*
X114738095Y-134442857D01*
X114690476Y-134347619D01*
X114642857Y-134300000D01*
X114547619Y-134252380D01*
X113642857Y-134680952D02*
X113738095Y-134633333D01*
X113785714Y-134585714D01*
X113833333Y-134490476D01*
X113833333Y-134442857D01*
X113785714Y-134347619D01*
X113738095Y-134300000D01*
X113642857Y-134252380D01*
X113452380Y-134252380D01*
X113357142Y-134300000D01*
X113309523Y-134347619D01*
X113261904Y-134442857D01*
X113261904Y-134490476D01*
X113309523Y-134585714D01*
X113357142Y-134633333D01*
X113452380Y-134680952D01*
X113642857Y-134680952D01*
X113738095Y-134728571D01*
X113785714Y-134776190D01*
X113833333Y-134871428D01*
X113833333Y-135061904D01*
X113785714Y-135157142D01*
X113738095Y-135204761D01*
X113642857Y-135252380D01*
X113452380Y-135252380D01*
X113357142Y-135204761D01*
X113309523Y-135157142D01*
X113261904Y-135061904D01*
X113261904Y-134871428D01*
X113309523Y-134776190D01*
X113357142Y-134728571D01*
X113452380Y-134680952D01*
G04 #@! TO.C,D107*
X116690476Y-117752380D02*
X116690476Y-116752380D01*
X116452380Y-116752380D01*
X116309523Y-116800000D01*
X116214285Y-116895238D01*
X116166666Y-116990476D01*
X116119047Y-117180952D01*
X116119047Y-117323809D01*
X116166666Y-117514285D01*
X116214285Y-117609523D01*
X116309523Y-117704761D01*
X116452380Y-117752380D01*
X116690476Y-117752380D01*
X115166666Y-117752380D02*
X115738095Y-117752380D01*
X115452380Y-117752380D02*
X115452380Y-116752380D01*
X115547619Y-116895238D01*
X115642857Y-116990476D01*
X115738095Y-117038095D01*
X114547619Y-116752380D02*
X114452380Y-116752380D01*
X114357142Y-116800000D01*
X114309523Y-116847619D01*
X114261904Y-116942857D01*
X114214285Y-117133333D01*
X114214285Y-117371428D01*
X114261904Y-117561904D01*
X114309523Y-117657142D01*
X114357142Y-117704761D01*
X114452380Y-117752380D01*
X114547619Y-117752380D01*
X114642857Y-117704761D01*
X114690476Y-117657142D01*
X114738095Y-117561904D01*
X114785714Y-117371428D01*
X114785714Y-117133333D01*
X114738095Y-116942857D01*
X114690476Y-116847619D01*
X114642857Y-116800000D01*
X114547619Y-116752380D01*
X113880952Y-116752380D02*
X113214285Y-116752380D01*
X113642857Y-117752380D01*
G04 #@! TO.C,D106*
X99190476Y-152752380D02*
X99190476Y-151752380D01*
X98952380Y-151752380D01*
X98809523Y-151800000D01*
X98714285Y-151895238D01*
X98666666Y-151990476D01*
X98619047Y-152180952D01*
X98619047Y-152323809D01*
X98666666Y-152514285D01*
X98714285Y-152609523D01*
X98809523Y-152704761D01*
X98952380Y-152752380D01*
X99190476Y-152752380D01*
X97666666Y-152752380D02*
X98238095Y-152752380D01*
X97952380Y-152752380D02*
X97952380Y-151752380D01*
X98047619Y-151895238D01*
X98142857Y-151990476D01*
X98238095Y-152038095D01*
X97047619Y-151752380D02*
X96952380Y-151752380D01*
X96857142Y-151800000D01*
X96809523Y-151847619D01*
X96761904Y-151942857D01*
X96714285Y-152133333D01*
X96714285Y-152371428D01*
X96761904Y-152561904D01*
X96809523Y-152657142D01*
X96857142Y-152704761D01*
X96952380Y-152752380D01*
X97047619Y-152752380D01*
X97142857Y-152704761D01*
X97190476Y-152657142D01*
X97238095Y-152561904D01*
X97285714Y-152371428D01*
X97285714Y-152133333D01*
X97238095Y-151942857D01*
X97190476Y-151847619D01*
X97142857Y-151800000D01*
X97047619Y-151752380D01*
X95857142Y-151752380D02*
X96047619Y-151752380D01*
X96142857Y-151800000D01*
X96190476Y-151847619D01*
X96285714Y-151990476D01*
X96333333Y-152180952D01*
X96333333Y-152561904D01*
X96285714Y-152657142D01*
X96238095Y-152704761D01*
X96142857Y-152752380D01*
X95952380Y-152752380D01*
X95857142Y-152704761D01*
X95809523Y-152657142D01*
X95761904Y-152561904D01*
X95761904Y-152323809D01*
X95809523Y-152228571D01*
X95857142Y-152180952D01*
X95952380Y-152133333D01*
X96142857Y-152133333D01*
X96238095Y-152180952D01*
X96285714Y-152228571D01*
X96333333Y-152323809D01*
G04 #@! TO.C,D105*
X99190476Y-135252380D02*
X99190476Y-134252380D01*
X98952380Y-134252380D01*
X98809523Y-134300000D01*
X98714285Y-134395238D01*
X98666666Y-134490476D01*
X98619047Y-134680952D01*
X98619047Y-134823809D01*
X98666666Y-135014285D01*
X98714285Y-135109523D01*
X98809523Y-135204761D01*
X98952380Y-135252380D01*
X99190476Y-135252380D01*
X97666666Y-135252380D02*
X98238095Y-135252380D01*
X97952380Y-135252380D02*
X97952380Y-134252380D01*
X98047619Y-134395238D01*
X98142857Y-134490476D01*
X98238095Y-134538095D01*
X97047619Y-134252380D02*
X96952380Y-134252380D01*
X96857142Y-134300000D01*
X96809523Y-134347619D01*
X96761904Y-134442857D01*
X96714285Y-134633333D01*
X96714285Y-134871428D01*
X96761904Y-135061904D01*
X96809523Y-135157142D01*
X96857142Y-135204761D01*
X96952380Y-135252380D01*
X97047619Y-135252380D01*
X97142857Y-135204761D01*
X97190476Y-135157142D01*
X97238095Y-135061904D01*
X97285714Y-134871428D01*
X97285714Y-134633333D01*
X97238095Y-134442857D01*
X97190476Y-134347619D01*
X97142857Y-134300000D01*
X97047619Y-134252380D01*
X95809523Y-134252380D02*
X96285714Y-134252380D01*
X96333333Y-134728571D01*
X96285714Y-134680952D01*
X96190476Y-134633333D01*
X95952380Y-134633333D01*
X95857142Y-134680952D01*
X95809523Y-134728571D01*
X95761904Y-134823809D01*
X95761904Y-135061904D01*
X95809523Y-135157142D01*
X95857142Y-135204761D01*
X95952380Y-135252380D01*
X96190476Y-135252380D01*
X96285714Y-135204761D01*
X96333333Y-135157142D01*
G04 #@! TO.C,D104*
X99190476Y-117752380D02*
X99190476Y-116752380D01*
X98952380Y-116752380D01*
X98809523Y-116800000D01*
X98714285Y-116895238D01*
X98666666Y-116990476D01*
X98619047Y-117180952D01*
X98619047Y-117323809D01*
X98666666Y-117514285D01*
X98714285Y-117609523D01*
X98809523Y-117704761D01*
X98952380Y-117752380D01*
X99190476Y-117752380D01*
X97666666Y-117752380D02*
X98238095Y-117752380D01*
X97952380Y-117752380D02*
X97952380Y-116752380D01*
X98047619Y-116895238D01*
X98142857Y-116990476D01*
X98238095Y-117038095D01*
X97047619Y-116752380D02*
X96952380Y-116752380D01*
X96857142Y-116800000D01*
X96809523Y-116847619D01*
X96761904Y-116942857D01*
X96714285Y-117133333D01*
X96714285Y-117371428D01*
X96761904Y-117561904D01*
X96809523Y-117657142D01*
X96857142Y-117704761D01*
X96952380Y-117752380D01*
X97047619Y-117752380D01*
X97142857Y-117704761D01*
X97190476Y-117657142D01*
X97238095Y-117561904D01*
X97285714Y-117371428D01*
X97285714Y-117133333D01*
X97238095Y-116942857D01*
X97190476Y-116847619D01*
X97142857Y-116800000D01*
X97047619Y-116752380D01*
X95857142Y-117085714D02*
X95857142Y-117752380D01*
X96095238Y-116704761D02*
X96333333Y-117419047D01*
X95714285Y-117419047D01*
G04 #@! TO.C,D103*
X81690476Y-152752380D02*
X81690476Y-151752380D01*
X81452380Y-151752380D01*
X81309523Y-151800000D01*
X81214285Y-151895238D01*
X81166666Y-151990476D01*
X81119047Y-152180952D01*
X81119047Y-152323809D01*
X81166666Y-152514285D01*
X81214285Y-152609523D01*
X81309523Y-152704761D01*
X81452380Y-152752380D01*
X81690476Y-152752380D01*
X80166666Y-152752380D02*
X80738095Y-152752380D01*
X80452380Y-152752380D02*
X80452380Y-151752380D01*
X80547619Y-151895238D01*
X80642857Y-151990476D01*
X80738095Y-152038095D01*
X79547619Y-151752380D02*
X79452380Y-151752380D01*
X79357142Y-151800000D01*
X79309523Y-151847619D01*
X79261904Y-151942857D01*
X79214285Y-152133333D01*
X79214285Y-152371428D01*
X79261904Y-152561904D01*
X79309523Y-152657142D01*
X79357142Y-152704761D01*
X79452380Y-152752380D01*
X79547619Y-152752380D01*
X79642857Y-152704761D01*
X79690476Y-152657142D01*
X79738095Y-152561904D01*
X79785714Y-152371428D01*
X79785714Y-152133333D01*
X79738095Y-151942857D01*
X79690476Y-151847619D01*
X79642857Y-151800000D01*
X79547619Y-151752380D01*
X78880952Y-151752380D02*
X78261904Y-151752380D01*
X78595238Y-152133333D01*
X78452380Y-152133333D01*
X78357142Y-152180952D01*
X78309523Y-152228571D01*
X78261904Y-152323809D01*
X78261904Y-152561904D01*
X78309523Y-152657142D01*
X78357142Y-152704761D01*
X78452380Y-152752380D01*
X78738095Y-152752380D01*
X78833333Y-152704761D01*
X78880952Y-152657142D01*
G04 #@! TO.C,D102*
X81690476Y-135252380D02*
X81690476Y-134252380D01*
X81452380Y-134252380D01*
X81309523Y-134300000D01*
X81214285Y-134395238D01*
X81166666Y-134490476D01*
X81119047Y-134680952D01*
X81119047Y-134823809D01*
X81166666Y-135014285D01*
X81214285Y-135109523D01*
X81309523Y-135204761D01*
X81452380Y-135252380D01*
X81690476Y-135252380D01*
X80166666Y-135252380D02*
X80738095Y-135252380D01*
X80452380Y-135252380D02*
X80452380Y-134252380D01*
X80547619Y-134395238D01*
X80642857Y-134490476D01*
X80738095Y-134538095D01*
X79547619Y-134252380D02*
X79452380Y-134252380D01*
X79357142Y-134300000D01*
X79309523Y-134347619D01*
X79261904Y-134442857D01*
X79214285Y-134633333D01*
X79214285Y-134871428D01*
X79261904Y-135061904D01*
X79309523Y-135157142D01*
X79357142Y-135204761D01*
X79452380Y-135252380D01*
X79547619Y-135252380D01*
X79642857Y-135204761D01*
X79690476Y-135157142D01*
X79738095Y-135061904D01*
X79785714Y-134871428D01*
X79785714Y-134633333D01*
X79738095Y-134442857D01*
X79690476Y-134347619D01*
X79642857Y-134300000D01*
X79547619Y-134252380D01*
X78833333Y-134347619D02*
X78785714Y-134300000D01*
X78690476Y-134252380D01*
X78452380Y-134252380D01*
X78357142Y-134300000D01*
X78309523Y-134347619D01*
X78261904Y-134442857D01*
X78261904Y-134538095D01*
X78309523Y-134680952D01*
X78880952Y-135252380D01*
X78261904Y-135252380D01*
G04 #@! TO.C,D101*
X81690476Y-117752380D02*
X81690476Y-116752380D01*
X81452380Y-116752380D01*
X81309523Y-116800000D01*
X81214285Y-116895238D01*
X81166666Y-116990476D01*
X81119047Y-117180952D01*
X81119047Y-117323809D01*
X81166666Y-117514285D01*
X81214285Y-117609523D01*
X81309523Y-117704761D01*
X81452380Y-117752380D01*
X81690476Y-117752380D01*
X80166666Y-117752380D02*
X80738095Y-117752380D01*
X80452380Y-117752380D02*
X80452380Y-116752380D01*
X80547619Y-116895238D01*
X80642857Y-116990476D01*
X80738095Y-117038095D01*
X79547619Y-116752380D02*
X79452380Y-116752380D01*
X79357142Y-116800000D01*
X79309523Y-116847619D01*
X79261904Y-116942857D01*
X79214285Y-117133333D01*
X79214285Y-117371428D01*
X79261904Y-117561904D01*
X79309523Y-117657142D01*
X79357142Y-117704761D01*
X79452380Y-117752380D01*
X79547619Y-117752380D01*
X79642857Y-117704761D01*
X79690476Y-117657142D01*
X79738095Y-117561904D01*
X79785714Y-117371428D01*
X79785714Y-117133333D01*
X79738095Y-116942857D01*
X79690476Y-116847619D01*
X79642857Y-116800000D01*
X79547619Y-116752380D01*
X78261904Y-117752380D02*
X78833333Y-117752380D01*
X78547619Y-117752380D02*
X78547619Y-116752380D01*
X78642857Y-116895238D01*
X78738095Y-116990476D01*
X78833333Y-117038095D01*
G04 #@! TD*
M02*
