G04 #@! TF.GenerationSoftware,KiCad,Pcbnew,5.1.9-73d0e3b20d~88~ubuntu18.04.1*
G04 #@! TF.CreationDate,2021-10-16T20:22:12+02:00*
G04 #@! TF.ProjectId,VFODial,56464f44-6961-46c2-9e6b-696361645f70,rev?*
G04 #@! TF.SameCoordinates,Original*
G04 #@! TF.FileFunction,Paste,Top*
G04 #@! TF.FilePolarity,Positive*
%FSLAX46Y46*%
G04 Gerber Fmt 4.6, Leading zero omitted, Abs format (unit mm)*
G04 Created by KiCad (PCBNEW 5.1.9-73d0e3b20d~88~ubuntu18.04.1) date 2021-10-16 20:22:12*
%MOMM*%
%LPD*%
G01*
G04 APERTURE LIST*
G04 #@! TA.AperFunction,Profile*
%ADD10C,0.050000*%
G04 #@! TD*
%ADD11R,0.635000X1.143000*%
%ADD12R,1.143000X0.635000*%
%ADD13R,1.524000X2.032000*%
%ADD14R,2.420000X5.330000*%
%ADD15R,1.100000X0.600000*%
%ADD16R,1.400000X1.200000*%
%ADD17R,1.300000X0.250000*%
%ADD18R,0.250000X1.300000*%
%ADD19R,1.300000X0.450000*%
%ADD20R,1.000000X0.800000*%
G04 APERTURE END LIST*
D10*
X20100000Y-187400000D02*
X20100000Y-187300000D01*
X138100000Y-187400000D02*
X20100000Y-187400000D01*
X138100000Y-113400000D02*
X138100000Y-187400000D01*
X20100000Y-113400000D02*
X138100000Y-113400000D01*
X20100000Y-187300000D02*
X20100000Y-113400000D01*
D11*
G04 #@! TO.C,R128*
X23462000Y-170350000D03*
X21938000Y-170350000D03*
G04 #@! TD*
G04 #@! TO.C,R127*
X21938000Y-168800000D03*
X23462000Y-168800000D03*
G04 #@! TD*
D12*
G04 #@! TO.C,R104*
X53350000Y-178012000D03*
X53350000Y-176488000D03*
G04 #@! TD*
G04 #@! TO.C,R103*
X55000000Y-177312000D03*
X55000000Y-175788000D03*
G04 #@! TD*
D11*
G04 #@! TO.C,R102*
X30512000Y-156600000D03*
X28988000Y-156600000D03*
G04 #@! TD*
G04 #@! TO.C,R101*
X30512000Y-154950000D03*
X28988000Y-154950000D03*
G04 #@! TD*
G04 #@! TO.C,C119*
X26238000Y-173700000D03*
X27762000Y-173700000D03*
G04 #@! TD*
D13*
G04 #@! TO.C,C118*
X24399000Y-166600000D03*
X27701000Y-166600000D03*
G04 #@! TD*
G04 #@! TO.C,C117*
X24399000Y-164100000D03*
X27701000Y-164100000D03*
G04 #@! TD*
G04 #@! TO.C,C116*
X44801000Y-172000000D03*
X41499000Y-172000000D03*
G04 #@! TD*
G04 #@! TO.C,C115*
X44801000Y-168700000D03*
X41499000Y-168700000D03*
G04 #@! TD*
D12*
G04 #@! TO.C,C114*
X41500000Y-175612000D03*
X41500000Y-174088000D03*
G04 #@! TD*
G04 #@! TO.C,C103*
X48100000Y-157888000D03*
X48100000Y-159412000D03*
G04 #@! TD*
G04 #@! TO.C,C102*
X42300000Y-159412000D03*
X42300000Y-157888000D03*
G04 #@! TD*
G04 #@! TO.C,C101*
X46700000Y-176738000D03*
X46700000Y-178262000D03*
G04 #@! TD*
D14*
G04 #@! TO.C,U102*
X31080000Y-170350000D03*
X38320000Y-170350000D03*
G04 #@! TD*
D15*
G04 #@! TO.C,U103*
X25000000Y-171300000D03*
X25000000Y-170350000D03*
X25000000Y-169400000D03*
X27700000Y-169400000D03*
X27700000Y-170350000D03*
X27700000Y-171300000D03*
G04 #@! TD*
D16*
G04 #@! TO.C,X101*
X44100001Y-157800000D03*
X46300001Y-157800000D03*
X46300001Y-159500000D03*
X44100001Y-159500000D03*
G04 #@! TD*
D17*
G04 #@! TO.C,U101*
X43850000Y-152550000D03*
X43850000Y-152050000D03*
X43850000Y-151550000D03*
X43850000Y-151050000D03*
X43850000Y-150550000D03*
X43850000Y-150050000D03*
X43850000Y-149550000D03*
X43850000Y-149050000D03*
X43850000Y-148550000D03*
X43850000Y-148050000D03*
X43850000Y-147550000D03*
X43850000Y-147050000D03*
D18*
X45450000Y-145450000D03*
X45950000Y-145450000D03*
X46450000Y-145450000D03*
X46950000Y-145450000D03*
X47450000Y-145450000D03*
X47950000Y-145450000D03*
X48450000Y-145450000D03*
X48950000Y-145450000D03*
X49450000Y-145450000D03*
X49950000Y-145450000D03*
X50450000Y-145450000D03*
X50950000Y-145450000D03*
D17*
X52550000Y-147050000D03*
X52550000Y-147550000D03*
X52550000Y-148050000D03*
X52550000Y-148550000D03*
X52550000Y-149050000D03*
X52550000Y-149550000D03*
X52550000Y-150050000D03*
X52550000Y-150550000D03*
X52550000Y-151050000D03*
X52550000Y-151550000D03*
X52550000Y-152050000D03*
X52550000Y-152550000D03*
D18*
X50950000Y-154150000D03*
X50450000Y-154150000D03*
X49950000Y-154150000D03*
X49450000Y-154150000D03*
X48950000Y-154150000D03*
X48450000Y-154150000D03*
X47950000Y-154150000D03*
X47450000Y-154150000D03*
X46950000Y-154150000D03*
X46450000Y-154150000D03*
X45950000Y-154150000D03*
X45450000Y-154150000D03*
G04 #@! TD*
D19*
G04 #@! TO.C,J101*
X25800000Y-157400000D03*
X25800000Y-156750000D03*
X25800000Y-156100000D03*
X25800000Y-155450000D03*
X25800000Y-154800000D03*
G04 #@! TD*
D20*
G04 #@! TO.C,L101*
X60400000Y-172600000D03*
X60400000Y-171500000D03*
X58900000Y-171500000D03*
X58900000Y-172600000D03*
G04 #@! TD*
M02*
