M48
; DRILL file {KiCad 5.1.9-73d0e3b20d~88~ubuntu18.04.1} date Sat Oct 16 20:22:25 2021
; FORMAT={3:3/ absolute / metric / suppress leading zeros}
; #@! TF.CreationDate,2021-10-16T20:22:25+02:00
; #@! TF.GenerationSoftware,Kicad,Pcbnew,5.1.9-73d0e3b20d~88~ubuntu18.04.1
; #@! TF.FileFunction,NonPlated,1,4,NPTH
FMAT,2
METRIC,TZ
T1C0.800
T2C1.702
T3C3.200
T4C4.000
%
G90
G05
T1
X24700Y-153600
X24700Y-158600
T2
X67420Y-125000
X67420Y-142500
X67420Y-160000
X76170Y-179000
X77580Y-125000
X77580Y-142500
X77580Y-160000
X84920Y-125000
X84920Y-142500
X84920Y-160000
X86330Y-179000
X93670Y-179000
X95080Y-125000
X95080Y-142500
X95080Y-160000
X102420Y-125000
X102420Y-142500
X102420Y-160000
X103830Y-179000
X111170Y-179000
X112580Y-125000
X112580Y-142500
X112580Y-160000
X119920Y-125000
X119920Y-142500
X119920Y-160000
X121330Y-179000
X130080Y-125000
X130080Y-142500
X130080Y-160000
T3
X26000Y-118000
X26000Y-182000
X59000Y-118000
X133000Y-182000
T4
X72500Y-125000
X72500Y-142500
X72500Y-160000
X81250Y-179000
X90000Y-125000
X90000Y-142500
X90000Y-160000
X98750Y-179000
X107500Y-125000
X107500Y-142500
X107500Y-160000
X116250Y-179000
X125000Y-125000
X125000Y-142500
X125000Y-160000
T0
M30
