M48
; DRILL file {KiCad 5.1.9-73d0e3b20d~88~ubuntu18.04.1} date Sat Oct 16 20:22:25 2021
; FORMAT={3:3/ absolute / metric / suppress leading zeros}
; #@! TF.CreationDate,2021-10-16T20:22:25+02:00
; #@! TF.GenerationSoftware,Kicad,Pcbnew,5.1.9-73d0e3b20d~88~ubuntu18.04.1
; #@! TF.FileFunction,Plated,1,4,PTH
FMAT,2
METRIC,TZ
T1C0.400
T2C0.650
T3C1.000
T4C1.200
T5C1.400
T6C1.500
%
G90
G05
T1
X21900Y-171700
X21950Y-167850
X23050Y-164100
X23050Y-166600
X24400Y-162600
X25500Y-164100
X25500Y-166600
X26300Y-169050
X26300Y-171200
X26650Y-172300
X26800Y-158300
X26900Y-154350
X27650Y-162650
X27700Y-172300
X28700Y-162650
X28850Y-172300
X37500Y-173750
X37800Y-149550
X38900Y-173750
X39150Y-148750
X39150Y-151100
X40350Y-170350
X40350Y-173750
X40400Y-143650
X40750Y-157750
X41450Y-182550
X41500Y-164800
X41550Y-143850
X41700Y-148575
X41750Y-170350
X41800Y-146700
X42250Y-131600
X42370Y-133920
X42500Y-152850
X43250Y-182550
X43500Y-166750
X43700Y-174950
X44350Y-153650
X45303Y-147108
X45650Y-170350
X45800Y-151076
X46200Y-147550
X46700Y-179150
X46800Y-184700
X46950Y-148600
X47100Y-152700
X47200Y-151100
X47650Y-160450
X47750Y-156600
X47850Y-185650
X48100Y-151825
X48400Y-173550
X48750Y-186450
X48950Y-139000
X49025Y-143550
X49088Y-156300
X49250Y-146900
X49250Y-171200
X49300Y-169200
X49950Y-158750
X50400Y-160000
X50850Y-139050
X51000Y-150250
X52350Y-169550
X54350Y-150088
X54350Y-153200
X54900Y-168600
X55850Y-167400
X56100Y-153200
X56250Y-175800
X56400Y-177250
X57700Y-172600
X58050Y-148250
X58050Y-152500
X58500Y-176050
X58500Y-177600
X58900Y-142000
X58900Y-170300
X58900Y-173700
X60200Y-141050
X61400Y-140250
X61600Y-172600
X61700Y-171100
X62125Y-147775
X62125Y-151100
X62850Y-147050
X62850Y-157450
X63850Y-122450
X63850Y-149050
X64650Y-163100
X64750Y-140900
X65550Y-147600
X65600Y-130100
X65600Y-165100
X71450Y-173950
X72800Y-171800
X73200Y-178000
X74250Y-184100
X78000Y-169200
X78200Y-170800
X81635Y-151115
X83000Y-130100
X83000Y-165100
X83050Y-147600
X87400Y-181900
X88700Y-185200
X89200Y-173950
X89800Y-177700
X90300Y-172000
X91650Y-184100
X92300Y-169900
X99135Y-152465
X100250Y-165100
X100400Y-147600
X100450Y-130100
X104900Y-182200
X106200Y-185200
X107800Y-171800
X108950Y-175250
X109050Y-184100
X109700Y-169850
X111550Y-168300
X112700Y-172800
X116635Y-133885
X117900Y-147600
X117950Y-130100
X117950Y-165100
X121450Y-182500
X124100Y-185100
X125300Y-171700
X127200Y-169800
X134135Y-132715
T2
X49250Y-176750
X49250Y-178020
X49250Y-179290
X49250Y-180560
X49250Y-181830
X50520Y-176750
X50520Y-178020
X50520Y-179290
X50520Y-180560
X50520Y-181830
T3
X26100Y-128840
X26100Y-131380
X26100Y-133920
X26100Y-136460
X26100Y-139000
X39280Y-118000
X41820Y-118000
X44360Y-118000
X46900Y-118000
X47080Y-164300
X49620Y-164300
X52160Y-164300
X54700Y-164300
T4
X21950Y-152225
X21950Y-159975
T5
X25750Y-152375
X25750Y-159825
T6
X68690Y-122460
X68690Y-139960
X68690Y-157460
X71230Y-130080
X71230Y-147580
X71230Y-165080
X73770Y-130080
X73770Y-147580
X73770Y-165080
X75040Y-119920
X75040Y-137420
X75040Y-154920
X77440Y-176460
X79980Y-184080
X82520Y-184080
X83790Y-173920
X86190Y-122460
X86190Y-139960
X86190Y-157460
X88730Y-130080
X88730Y-147580
X88730Y-165080
X91270Y-130080
X91270Y-147580
X91270Y-165080
X92540Y-119920
X92540Y-137420
X92540Y-154920
X94940Y-176460
X97480Y-184080
X100020Y-184080
X101290Y-173920
X103690Y-122460
X103690Y-139960
X103690Y-157460
X106230Y-130080
X106230Y-147580
X106230Y-165080
X108770Y-130080
X108770Y-147580
X108770Y-165080
X110040Y-119920
X110040Y-137420
X110040Y-154920
X112440Y-176460
X114980Y-184080
X117520Y-184080
X118790Y-173920
X121190Y-122460
X121190Y-139960
X121190Y-157460
X123730Y-130080
X123730Y-147580
X123730Y-165080
X126270Y-130080
X126270Y-147580
X126270Y-165080
X127540Y-119920
X127540Y-137420
X127540Y-154920
T0
M30
