G04 #@! TF.GenerationSoftware,KiCad,Pcbnew,5.1.9-73d0e3b20d~88~ubuntu18.04.1*
G04 #@! TF.CreationDate,2021-10-16T20:22:12+02:00*
G04 #@! TF.ProjectId,VFODial,56464f44-6961-46c2-9e6b-696361645f70,rev?*
G04 #@! TF.SameCoordinates,Original*
G04 #@! TF.FileFunction,Soldermask,Bot*
G04 #@! TF.FilePolarity,Negative*
%FSLAX46Y46*%
G04 Gerber Fmt 4.6, Leading zero omitted, Abs format (unit mm)*
G04 Created by KiCad (PCBNEW 5.1.9-73d0e3b20d~88~ubuntu18.04.1) date 2021-10-16 20:22:12*
%MOMM*%
%LPD*%
G01*
G04 APERTURE LIST*
G04 #@! TA.AperFunction,Profile*
%ADD10C,0.050000*%
G04 #@! TD*
%ADD11R,1.143000X0.635000*%
%ADD12R,0.635000X1.143000*%
%ADD13R,0.889000X1.397000*%
%ADD14R,1.397000X0.889000*%
%ADD15C,7.000000*%
%ADD16R,0.800000X0.900000*%
%ADD17R,0.900000X0.800000*%
%ADD18C,2.000000*%
%ADD19C,1.701800*%
%ADD20C,4.000000*%
%ADD21C,0.800000*%
%ADD22C,1.800000*%
%ADD23O,1.000000X1.000000*%
%ADD24R,1.000000X1.000000*%
%ADD25O,1.700000X1.700000*%
%ADD26R,1.700000X1.700000*%
%ADD27R,0.910000X1.220000*%
G04 APERTURE END LIST*
D10*
X20100000Y-187400000D02*
X20100000Y-187300000D01*
X138100000Y-187400000D02*
X20100000Y-187400000D01*
X138100000Y-113400000D02*
X138100000Y-187400000D01*
X20100000Y-113400000D02*
X138100000Y-113400000D01*
X20100000Y-187300000D02*
X20100000Y-113400000D01*
D11*
G04 #@! TO.C,R129*
X111550000Y-170562000D03*
X111550000Y-169038000D03*
G04 #@! TD*
D12*
G04 #@! TO.C,R126*
X118838000Y-165100000D03*
X120362000Y-165100000D03*
G04 #@! TD*
G04 #@! TO.C,R125*
X118838000Y-147600000D03*
X120362000Y-147600000D03*
G04 #@! TD*
G04 #@! TO.C,R124*
X118838000Y-130100000D03*
X120362000Y-130100000D03*
G04 #@! TD*
G04 #@! TO.C,R123*
X101338000Y-165100000D03*
X102862000Y-165100000D03*
G04 #@! TD*
G04 #@! TO.C,R122*
X101338000Y-147600000D03*
X102862000Y-147600000D03*
G04 #@! TD*
G04 #@! TO.C,R121*
X101338000Y-130100000D03*
X102862000Y-130100000D03*
G04 #@! TD*
D11*
G04 #@! TO.C,R120*
X76900000Y-170762000D03*
X76900000Y-169238000D03*
G04 #@! TD*
D12*
G04 #@! TO.C,R119*
X83838000Y-165100000D03*
X85362000Y-165100000D03*
G04 #@! TD*
G04 #@! TO.C,R118*
X83838000Y-147600000D03*
X85362000Y-147600000D03*
G04 #@! TD*
G04 #@! TO.C,R117*
X83838000Y-130100000D03*
X85362000Y-130100000D03*
G04 #@! TD*
G04 #@! TO.C,R116*
X110038000Y-184100000D03*
X111562000Y-184100000D03*
G04 #@! TD*
G04 #@! TO.C,R115*
X92538000Y-184100000D03*
X94062000Y-184100000D03*
G04 #@! TD*
G04 #@! TO.C,R114*
X75138000Y-184100000D03*
X76662000Y-184100000D03*
G04 #@! TD*
G04 #@! TO.C,R113*
X66338000Y-165100000D03*
X67862000Y-165100000D03*
G04 #@! TD*
G04 #@! TO.C,R112*
X66338000Y-147600000D03*
X67862000Y-147600000D03*
G04 #@! TD*
G04 #@! TO.C,R111*
X66338000Y-130100000D03*
X67862000Y-130100000D03*
G04 #@! TD*
D11*
G04 #@! TO.C,R110*
X110000000Y-175238000D03*
X110000000Y-176762000D03*
G04 #@! TD*
D12*
G04 #@! TO.C,R109*
X91238000Y-175000000D03*
X92762000Y-175000000D03*
G04 #@! TD*
G04 #@! TO.C,R108*
X74238000Y-175000000D03*
X75762000Y-175000000D03*
G04 #@! TD*
D11*
G04 #@! TO.C,R107*
X58900000Y-167638000D03*
X58900000Y-169162000D03*
G04 #@! TD*
D12*
G04 #@! TO.C,R106*
X63962000Y-171100000D03*
X62438000Y-171100000D03*
G04 #@! TD*
G04 #@! TO.C,R105*
X63962000Y-172600000D03*
X62438000Y-172600000D03*
G04 #@! TD*
G04 #@! TO.C,C113*
X111238000Y-174000000D03*
X112762000Y-174000000D03*
G04 #@! TD*
D11*
G04 #@! TO.C,C112*
X91000000Y-176238000D03*
X91000000Y-177762000D03*
G04 #@! TD*
D12*
G04 #@! TO.C,C111*
X74762000Y-177000000D03*
X73238000Y-177000000D03*
G04 #@! TD*
D11*
G04 #@! TO.C,C110*
X54350000Y-151612000D03*
X54350000Y-150088000D03*
G04 #@! TD*
D12*
G04 #@! TO.C,C109*
X50612000Y-156300000D03*
X49088000Y-156300000D03*
G04 #@! TD*
G04 #@! TO.C,C108*
X50462000Y-143550000D03*
X48938000Y-143550000D03*
G04 #@! TD*
D11*
G04 #@! TO.C,C107*
X42150000Y-150112000D03*
X42150000Y-148588000D03*
G04 #@! TD*
G04 #@! TO.C,C106*
X45800000Y-152600000D03*
X45800000Y-151076000D03*
G04 #@! TD*
D13*
G04 #@! TO.C,C105*
X50802500Y-141650000D03*
X48897500Y-141650000D03*
G04 #@! TD*
D14*
G04 #@! TO.C,C104*
X56100000Y-152002500D03*
X56100000Y-150097500D03*
G04 #@! TD*
D15*
G04 #@! TO.C,REF\u002A\u002A*
X59000000Y-118000000D03*
G04 #@! TD*
G04 #@! TO.C,REF\u002A\u002A*
X26000000Y-182000000D03*
G04 #@! TD*
G04 #@! TO.C,REF\u002A\u002A*
X133000000Y-182000000D03*
G04 #@! TD*
G04 #@! TO.C,REF\u002A\u002A*
X26000000Y-118000000D03*
G04 #@! TD*
D16*
G04 #@! TO.C,Q107*
X126300000Y-168800000D03*
X125350000Y-170800000D03*
X127250000Y-170800000D03*
G04 #@! TD*
G04 #@! TO.C,Q106*
X108800000Y-168800000D03*
X107850000Y-170800000D03*
X109750000Y-170800000D03*
G04 #@! TD*
D17*
G04 #@! TO.C,Q105*
X85400000Y-184100000D03*
X87400000Y-185050000D03*
X87400000Y-183150000D03*
G04 #@! TD*
D16*
G04 #@! TO.C,Q104*
X91300000Y-168800000D03*
X90350000Y-170800000D03*
X92250000Y-170800000D03*
G04 #@! TD*
D17*
G04 #@! TO.C,Q103*
X102900000Y-184100000D03*
X104900000Y-185050000D03*
X104900000Y-183150000D03*
G04 #@! TD*
G04 #@! TO.C,Q102*
X121000000Y-184100000D03*
X123000000Y-185050000D03*
X123000000Y-183150000D03*
G04 #@! TD*
D16*
G04 #@! TO.C,Q101*
X73800000Y-168800000D03*
X72850000Y-170800000D03*
X74750000Y-170800000D03*
G04 #@! TD*
D18*
G04 #@! TO.C,S115*
X117520000Y-184080000D03*
X114980000Y-184080000D03*
X118790000Y-173920000D03*
X112440000Y-176460000D03*
D19*
X121330000Y-179000000D03*
X111170000Y-179000000D03*
D20*
X116250000Y-179000000D03*
G04 #@! TD*
D18*
G04 #@! TO.C,S114*
X100020000Y-184080000D03*
X97480000Y-184080000D03*
X101290000Y-173920000D03*
X94940000Y-176460000D03*
D19*
X103830000Y-179000000D03*
X93670000Y-179000000D03*
D20*
X98750000Y-179000000D03*
G04 #@! TD*
D18*
G04 #@! TO.C,S113*
X82520000Y-184080000D03*
X79980000Y-184080000D03*
X83790000Y-173920000D03*
X77440000Y-176460000D03*
D19*
X86330000Y-179000000D03*
X76170000Y-179000000D03*
D20*
X81250000Y-179000000D03*
G04 #@! TD*
D18*
G04 #@! TO.C,S112*
X126270000Y-165080000D03*
X123730000Y-165080000D03*
X127540000Y-154920000D03*
X121190000Y-157460000D03*
D19*
X130080000Y-160000000D03*
X119920000Y-160000000D03*
D20*
X125000000Y-160000000D03*
G04 #@! TD*
D18*
G04 #@! TO.C,S111*
X126270000Y-147580000D03*
X123730000Y-147580000D03*
X127540000Y-137420000D03*
X121190000Y-139960000D03*
D19*
X130080000Y-142500000D03*
X119920000Y-142500000D03*
D20*
X125000000Y-142500000D03*
G04 #@! TD*
D18*
G04 #@! TO.C,S110*
X126270000Y-130080000D03*
X123730000Y-130080000D03*
X127540000Y-119920000D03*
X121190000Y-122460000D03*
D19*
X130080000Y-125000000D03*
X119920000Y-125000000D03*
D20*
X125000000Y-125000000D03*
G04 #@! TD*
D18*
G04 #@! TO.C,S109*
X108770000Y-165080000D03*
X106230000Y-165080000D03*
X110040000Y-154920000D03*
X103690000Y-157460000D03*
D19*
X112580000Y-160000000D03*
X102420000Y-160000000D03*
D20*
X107500000Y-160000000D03*
G04 #@! TD*
D18*
G04 #@! TO.C,S108*
X108770000Y-147580000D03*
X106230000Y-147580000D03*
X110040000Y-137420000D03*
X103690000Y-139960000D03*
D19*
X112580000Y-142500000D03*
X102420000Y-142500000D03*
D20*
X107500000Y-142500000D03*
G04 #@! TD*
D18*
G04 #@! TO.C,S107*
X108770000Y-130080000D03*
X106230000Y-130080000D03*
X110040000Y-119920000D03*
X103690000Y-122460000D03*
D19*
X112580000Y-125000000D03*
X102420000Y-125000000D03*
D20*
X107500000Y-125000000D03*
G04 #@! TD*
D18*
G04 #@! TO.C,S106*
X91270000Y-165080000D03*
X88730000Y-165080000D03*
X92540000Y-154920000D03*
X86190000Y-157460000D03*
D19*
X95080000Y-160000000D03*
X84920000Y-160000000D03*
D20*
X90000000Y-160000000D03*
G04 #@! TD*
D18*
G04 #@! TO.C,S105*
X91270000Y-147580000D03*
X88730000Y-147580000D03*
X92540000Y-137420000D03*
X86190000Y-139960000D03*
D19*
X95080000Y-142500000D03*
X84920000Y-142500000D03*
D20*
X90000000Y-142500000D03*
G04 #@! TD*
D18*
G04 #@! TO.C,S104*
X91270000Y-130080000D03*
X88730000Y-130080000D03*
X92540000Y-119920000D03*
X86190000Y-122460000D03*
D19*
X95080000Y-125000000D03*
X84920000Y-125000000D03*
D20*
X90000000Y-125000000D03*
G04 #@! TD*
D18*
G04 #@! TO.C,S103*
X73770000Y-165080000D03*
X71230000Y-165080000D03*
X75040000Y-154920000D03*
X68690000Y-157460000D03*
D19*
X77580000Y-160000000D03*
X67420000Y-160000000D03*
D20*
X72500000Y-160000000D03*
G04 #@! TD*
D18*
G04 #@! TO.C,S102*
X73770000Y-147580000D03*
X71230000Y-147580000D03*
X75040000Y-137420000D03*
X68690000Y-139960000D03*
D19*
X77580000Y-142500000D03*
X67420000Y-142500000D03*
D20*
X72500000Y-142500000D03*
G04 #@! TD*
D18*
G04 #@! TO.C,S101*
X73770000Y-130080000D03*
X71230000Y-130080000D03*
X75040000Y-119920000D03*
X68690000Y-122460000D03*
D19*
X77580000Y-125000000D03*
X67420000Y-125000000D03*
D20*
X72500000Y-125000000D03*
G04 #@! TD*
D21*
G04 #@! TO.C,J101*
X24700000Y-158600000D03*
X24700000Y-153600000D03*
D22*
X21950000Y-159975000D03*
X21950000Y-152225000D03*
D18*
X25750000Y-159825000D03*
X25750000Y-152375000D03*
G04 #@! TD*
D23*
G04 #@! TO.C,J102*
X50520000Y-181830000D03*
X49250000Y-181830000D03*
X50520000Y-180560000D03*
X49250000Y-180560000D03*
X50520000Y-179290000D03*
X49250000Y-179290000D03*
X50520000Y-178020000D03*
X49250000Y-178020000D03*
X50520000Y-176750000D03*
D24*
X49250000Y-176750000D03*
G04 #@! TD*
D25*
G04 #@! TO.C,J105*
X26100000Y-128840000D03*
X26100000Y-131380000D03*
X26100000Y-133920000D03*
X26100000Y-136460000D03*
D26*
X26100000Y-139000000D03*
G04 #@! TD*
D25*
G04 #@! TO.C,J104*
X39280000Y-118000000D03*
X41820000Y-118000000D03*
X44360000Y-118000000D03*
D26*
X46900000Y-118000000D03*
G04 #@! TD*
D25*
G04 #@! TO.C,J103*
X47080000Y-164300000D03*
X49620000Y-164300000D03*
X52160000Y-164300000D03*
D26*
X54700000Y-164300000D03*
G04 #@! TD*
D27*
G04 #@! TO.C,D112*
X130865000Y-155000000D03*
X134135000Y-155000000D03*
G04 #@! TD*
G04 #@! TO.C,D111*
X130865000Y-137500000D03*
X134135000Y-137500000D03*
G04 #@! TD*
G04 #@! TO.C,D110*
X130865000Y-120000000D03*
X134135000Y-120000000D03*
G04 #@! TD*
G04 #@! TO.C,D109*
X113365000Y-155000000D03*
X116635000Y-155000000D03*
G04 #@! TD*
G04 #@! TO.C,D108*
X113365000Y-137500000D03*
X116635000Y-137500000D03*
G04 #@! TD*
G04 #@! TO.C,D107*
X113365000Y-120000000D03*
X116635000Y-120000000D03*
G04 #@! TD*
G04 #@! TO.C,D106*
X95865000Y-155000000D03*
X99135000Y-155000000D03*
G04 #@! TD*
G04 #@! TO.C,D105*
X95865000Y-137500000D03*
X99135000Y-137500000D03*
G04 #@! TD*
G04 #@! TO.C,D104*
X95865000Y-120000000D03*
X99135000Y-120000000D03*
G04 #@! TD*
G04 #@! TO.C,D103*
X78365000Y-155000000D03*
X81635000Y-155000000D03*
G04 #@! TD*
G04 #@! TO.C,D102*
X78365000Y-137500000D03*
X81635000Y-137500000D03*
G04 #@! TD*
G04 #@! TO.C,D101*
X78365000Y-120000000D03*
X81635000Y-120000000D03*
G04 #@! TD*
M02*
